<?xml version="1.0" encoding="UTF-8"?>
<!DOCTYPE svg PUBLIC "-//W3C//DTD SVG 1.1//EN" "http://www.w3.org/Graphics/SVG/1.1/DTD/svg11.dtd">
<!-- Creator: CorelDRAW -->
<svg xmlns="http://www.w3.org/2000/svg" xml:space="preserve" width="200mm" height="200mm" version="1.1" style="shape-rendering:geometricPrecision; text-rendering:geometricPrecision; image-rendering:optimizeQuality; fill-rule:evenodd; clip-rule:evenodd"
viewBox="0 0 20000 20000"
 xmlns:xlink="http://www.w3.org/1999/xlink"
 xmlns:xodm="http://www.corel.com/coreldraw/odm/2003">
 <defs>
  <style type="text/css">
   <![CDATA[
    .fil2 {fill:#414042}
    .fil3 {fill:#58595B}
    .fil1 {fill:#6F0000}
    .fil0 {fill:#910D11}
    .fil4 {fill:#BCBEC0}
    .fil5 {fill:#ED1D24}
    .fil6 {fill:#2B2B2A;fill-rule:nonzero}
    .fil8 {fill:#E31F25;fill-rule:nonzero}
    .fil7 {fill:black;fill-rule:nonzero}
   ]]>
  </style>
 </defs>
 <g id="Слой_x0020_1">
  <metadata id="CorelCorpID_0Corel-Layer"/>
  <g id="_105553248130816">
   <g>
    <polygon class="fil0" points="10309.05,11589 9889.33,12250.59 10266.36,12883.73 10671.84,12250.59 "/>
    <polygon class="fil1" points="12407.63,10913.2 11169.81,10913.2 11447.26,11382.72 12713.51,11382.72 "/>
    <polygon class="fil2" points="11795.83,8643.89 9910.67,8643.89 10166.77,9063.6 11539.74,9063.6 "/>
    <polygon class="fil2" points="6659.66,12250.59 5770.42,12250.59 6133.24,12883.73 7036.69,12883.73 "/>
    <polygon class="fil1" points="9882.21,12250.59 7676.94,12250.59 8053.97,12883.73 10266.36,12883.73 "/>
    <polygon class="fil1" points="14178.97,12250.59 10323.28,12250.59 10700.31,12883.73 13801.94,12883.73 "/>
    <polygon class="fil0" points="10017.38,9945.73 9000.1,11581.9 9576.32,11581.9 10301.94,10415.23 11205.39,10415.23 10920.83,9945.73 "/>
    <polygon class="fil3" points="9974.7,7214.01 6659.66,12250.59 7036.69,12883.73 10309.05,7726.21 "/>
    <polygon class="fil4" points="9974.7,5883.74 5763.32,12250.59 6652.53,12250.59 9974.7,7214.01 10849.7,7214.01 "/>
    <polygon class="fil4" points="10849.7,7214.01 9974.7,7214.01 10373.07,7832.91 10472.67,7982.3 10316.15,7982.3 9903.55,8643.89 11795.83,8643.89 "/>
    <polygon class="fil5" points="11340.54,9284.14 9512.3,9284.14 7676.94,12250.59 8587.49,12250.59 9882.21,12250.59 10301.94,11589 8992.99,11589 10017.38,9945.73 10920.83,9945.73 "/>
    <polygon class="fil5" points="12208.43,9284.14 11333.43,9284.14 11966.56,10244.5 11575.31,10244.5 11162.7,10913.2 12400.5,10913.2 12848.68,11589 12009.26,11589 10735.87,11589 10323.28,12250.59 11553.97,12250.59 11553.97,12250.59 14171.84,12250.59 "/>
    <polygon class="fil0" points="11340.54,9284.14 10927.95,9945.73 11212.5,10415.23 11632.21,9732.3 "/>
    <polygon class="fil1" points="10920.83,9945.73 10017.38,9945.73 10301.94,10415.23 11205.39,10415.23 "/>
   </g>
   <g>
    <g>
     <path class="fil6" d="M4623.72 13769.89c111.8,0 186.97,-59.62 186.97,-147.12 0,-80.05 -75.17,-133.28 -186.97,-133.28l-96.4 0 0 280.4 96.4 0zm-235.49 -369.17l228.79 0c201.86,0 336.47,88.77 336.47,222.05 0,141.14 -131.4,234.78 -327.55,234.78l-98.62 0 0 251.21 -139.09 0 0 -708.04z"/>
     <path id="_1" class="fil7" d="M4802.02 13622.77l17.34 0 0 0 -0.23 8.59 -0.69 8.43 -1.15 8.27 -1.6 8.08 -2.03 7.89 -2.47 7.7 -2.9 7.5 -3.31 7.27 -3.73 7.06 -4.13 6.81 -4.51 6.58 -4.9 6.33 -5.26 6.07 -5.65 5.81 -5.98 5.54 -6.33 5.26 -6.66 4.98 -6.97 4.69 -7.31 4.41 -7.61 4.11 -7.9 3.8 -8.19 3.5 -8.47 3.19 -8.75 2.87 -9.01 2.55 -9.27 2.23 -9.52 1.89 -9.77 1.57 -9.99 1.22 -10.24 0.89 -10.45 0.53 -10.66 0.18 0 -17.36 10.08 -0.16 9.85 -0.51 9.62 -0.83 9.37 -1.14 9.13 -1.47 8.86 -1.77 8.61 -2.07 8.33 -2.35 8.05 -2.65 7.77 -2.93 7.49 -3.2 7.2 -3.46 6.89 -3.71 6.57 -3.97 6.27 -4.21 5.96 -4.46 5.63 -4.68 5.3 -4.9 4.97 -5.13 4.64 -5.35 4.3 -5.55 3.95 -5.76 3.61 -5.95 3.25 -6.16 2.89 -6.35 2.54 -6.54 2.15 -6.74 1.79 -6.93 1.4 -7.1 1.01 -7.29 0.61 -7.47 0.21 -7.65 0 0zm-178.3 -124.6l0 -17.36 0 0 10.63 0.16 10.42 0.48 10.2 0.78 9.97 1.09 9.74 1.4 9.48 1.69 9.25 1.99 8.98 2.29 8.72 2.56 8.45 2.86 8.17 3.14 7.89 3.41 7.6 3.69 7.3 3.96 6.97 4.24 6.66 4.48 6.34 4.76 5.99 5.02 5.66 5.26 5.29 5.52 4.93 5.76 4.54 6 4.16 6.23 3.76 6.46 3.35 6.67 2.93 6.88 2.49 7.1 2.06 7.27 1.62 7.45 1.16 7.63 0.7 7.79 0.23 7.94 -17.34 0 -0.21 -6.92 -0.6 -6.73 -1 -6.57 -1.38 -6.39 -1.76 -6.23 -2.13 -6.04 -2.51 -5.88 -2.85 -5.71 -3.22 -5.52 -3.58 -5.35 -3.92 -5.18 -4.27 -5 -4.61 -4.8 -4.96 -4.62 -5.29 -4.42 -5.62 -4.22 -5.96 -4.02 -6.27 -3.8 -6.58 -3.58 -6.9 -3.35 -7.21 -3.11 -7.51 -2.88 -7.79 -2.64 -8.08 -2.38 -8.36 -2.13 -8.63 -1.85 -8.9 -1.59 -9.16 -1.32 -9.39 -1.03 -9.66 -0.74 -9.88 -0.44 -10.11 -0.16 0 0zm-96.4 -17.36l96.4 0 0 17.36 -96.4 0 -8.67 -8.68 8.67 -8.68zm-8.67 8.68l0 -8.68 8.67 0 -8.67 8.68zm0 280.4l0 -280.4 17.34 0 0 280.4 -8.67 8.68 -8.67 -8.68zm8.67 8.68l-8.67 0 0 -8.68 8.67 8.68zm96.4 0l-96.4 0 0 -17.36 96.4 0 0 0 0 17.36zm-6.7 -369.17l-228.79 0 0 -17.36 228.79 0 0 0 0 17.36zm345.14 213.37l-17.34 0 0 0 -0.37 -11.81 -1.12 -11.53 -1.84 -11.24 -2.55 -10.98 -3.25 -10.68 -3.95 -10.39 -4.63 -10.1 -5.3 -9.82 -5.97 -9.52 -6.61 -9.21 -7.26 -8.9 -7.92 -8.58 -8.54 -8.26 -9.16 -7.93 -9.78 -7.58 -10.39 -7.22 -10.98 -6.87 -11.57 -6.5 -12.14 -6.11 -12.69 -5.71 -13.25 -5.32 -13.78 -4.9 -14.32 -4.48 -14.83 -4.05 -15.33 -3.6 -15.81 -3.15 -16.29 -2.69 -16.76 -2.23 -17.21 -1.74 -17.65 -1.25 -18.06 -0.76 -18.49 -0.26 0 -17.36 18.97 0.26 18.56 0.78 18.15 1.29 17.73 1.8 17.3 2.29 16.85 2.79 16.39 3.27 15.91 3.74 15.43 4.21 14.94 4.68 14.42 5.12 13.91 5.58 13.37 6.01 12.82 6.47 12.27 6.88 11.68 7.31 11.11 7.72 10.5 8.14 9.88 8.55 9.24 8.94 8.6 9.34 7.94 9.72 7.25 10.09 6.55 10.46 5.84 10.8 5.11 11.16 4.35 11.47 3.59 11.8 2.83 12.1 2.02 12.38 1.22 12.67 0.41 12.91 0 0zm-336.22 243.46l0 -17.36 0 0 17.94 -0.27 17.53 -0.8 17.13 -1.32 16.7 -1.84 16.27 -2.34 15.82 -2.84 15.35 -3.32 14.89 -3.8 14.4 -4.25 13.91 -4.73 13.4 -5.16 12.87 -5.6 12.34 -6.03 11.8 -6.45 11.26 -6.85 10.68 -7.24 10.11 -7.64 9.53 -8 8.93 -8.39 8.33 -8.73 7.72 -9.09 7.1 -9.43 6.47 -9.76 5.83 -10.1 5.19 -10.43 4.54 -10.74 3.87 -11.06 3.19 -11.37 2.51 -11.67 1.81 -11.98 1.09 -12.29 0.37 -12.58 17.34 0 -0.39 13.6 -1.19 13.33 -1.97 13.04 -2.73 12.73 -3.49 12.41 -4.23 12.1 -4.96 11.74 -5.67 11.39 -6.37 11.02 -7.05 10.64 -7.72 10.27 -8.38 9.85 -9.01 9.45 -9.63 9.03 -10.23 8.6 -10.83 8.18 -11.4 7.74 -11.96 7.27 -12.5 6.83 -13.04 6.37 -13.57 5.9 -14.06 5.42 -14.57 4.95 -15.04 4.45 -15.51 3.96 -15.97 3.46 -16.42 2.94 -16.85 2.42 -17.28 1.9 -17.67 1.36 -18.07 0.84 -18.46 0.27 0 0zm-98.62 -17.36l98.62 0 0 17.36 -98.62 0 -8.67 -8.68 8.67 -8.68zm-8.67 8.68l0 -8.68 8.67 0 -8.67 8.68zm0 251.21l0 -251.21 17.34 0 0 251.21 -8.67 8.68 -8.67 -8.68zm17.34 0l0 8.68 -8.67 0 8.67 -8.68zm-147.76 -8.68l139.09 0 0 17.36 -139.09 0 -8.67 -8.68 8.67 -8.68zm0 17.36l-8.67 0 0 -8.68 8.67 8.68zm8.67 -716.72l0 708.04 -17.34 0 0 -708.04 8.67 -8.68 8.67 8.68zm-17.34 0l0 -8.68 8.67 0 -8.67 8.68z"/>
    </g>
    <g>
     <polygon class="fil6" points="5084.42,13400.72 5575.81,13400.72 5575.81,13496.31 5223.75,13496.31 5223.75,13695.55 5510.26,13695.55 5510.26,13784.19 5223.75,13784.19 5223.75,14013.44 5575.81,14013.44 5575.81,14109.87 5084.42,14109.87 "/>
     <path id="_1_0" class="fil7" d="M5575.81 13409.4l-491.39 0 0 -17.36 491.39 0 8.67 8.68 -8.67 8.68zm0 -17.36l8.67 0 0 8.68 -8.67 -8.68zm-8.67 104.27l0 -95.59 17.34 0 0 95.59 -8.67 8.68 -8.67 -8.68zm17.34 0l0 8.68 -8.67 0 8.67 -8.68zm-360.73 -8.68l352.06 0 0 17.36 -352.06 0 -8.67 -8.68 8.67 -8.68zm-8.67 8.68l0 -8.68 8.67 0 -8.67 8.68zm0 199.24l0 -199.24 17.34 0 0 199.24 -8.67 8.68 -8.67 -8.68zm8.67 8.68l-8.67 0 0 -8.68 8.67 8.68zm286.51 0l-286.51 0 0 -17.36 286.51 0 8.67 8.68 -8.67 8.68zm0 -17.36l8.67 0 0 8.68 -8.67 -8.68zm-8.67 97.32l0 -88.64 17.34 0 0 88.64 -8.67 8.68 -8.67 -8.68zm17.34 0l0 8.68 -8.67 0 8.67 -8.68zm-295.18 -8.68l286.51 0 0 17.36 -286.51 0 -8.67 -8.68 8.67 -8.68zm-8.67 8.68l0 -8.68 8.67 0 -8.67 8.68zm0 229.25l0 -229.25 17.34 0 0 229.25 -8.67 8.68 -8.67 -8.68zm8.67 8.68l-8.67 0 0 -8.68 8.67 8.68zm352.06 0l-352.06 0 0 -17.36 352.06 0 8.67 8.68 -8.67 8.68zm0 -17.36l8.67 0 0 8.68 -8.67 -8.68zm-8.67 105.11l0 -96.43 17.34 0 0 96.43 -8.67 8.68 -8.67 -8.68zm17.34 0l0 8.68 -8.67 0 8.67 -8.68zm-500.06 -8.68l491.39 0 0 17.36 -491.39 0 -8.67 -8.68 8.67 -8.68zm0 17.36l-8.67 0 0 -8.68 8.67 8.68zm8.67 -717.83l0 709.15 -17.34 0 0 -709.15 8.67 -8.68 8.67 8.68zm-17.34 0l0 -8.68 8.67 0 -8.67 8.68z"/>
    </g>
    <g>
     <polygon class="fil6" points="6198.74,13400.15 6198.74,13495.74 5846.21,13495.74 5846.21,14109.31 5706.43,14109.31 5706.43,13400.15 "/>
     <path id="_1_1" class="fil7" d="M6190.07 13495.74l0 -95.59 17.34 0 0 95.59 -8.67 8.68 -8.67 -8.68zm17.34 0l0 8.68 -8.67 0 8.67 -8.68zm-361.2 -8.68l352.53 0 0 17.36 -352.53 0 -8.67 -8.68 8.67 -8.68zm-8.67 8.68l0 -8.68 8.67 0 -8.67 8.68zm0 613.57l0 -613.57 17.34 0 0 613.57 -8.67 8.68 -8.67 -8.68zm17.34 0l0 8.68 -8.67 0 8.67 -8.68zm-148.45 -8.68l139.78 0 0 17.36 -139.78 0 -8.67 -8.68 8.67 -8.68zm0 17.36l-8.67 0 0 -8.68 8.67 8.68zm8.67 -717.84l0 709.16 -17.34 0 0 -709.16 8.67 -8.68 8.67 8.68zm-17.34 0l0 -8.68 8.67 0 -8.67 8.68zm500.98 8.68l-492.31 0 0 -17.36 492.31 0 8.67 8.68 -8.67 8.68zm0 -17.36l8.67 0 0 8.68 -8.67 -8.68z"/>
    </g>
    <g>
     <polygon class="fil6" points="6780.28,14109.87 6780.28,13631.77 6443.77,14109.87 6321.35,14109.87 6321.35,13400.72 6452.27,13400.72 6452.27,13887.57 6787.83,13400.72 6910.74,13400.72 6910.74,14109.87 "/>
     <path id="_1_2" class="fil7" d="M6788.95 13631.77l0 478.1 -17.34 0 0 -478.1 1.58 -5 15.76 5zm-15.76 -5l15.76 -22.39 0 27.39 -15.76 -5zm-336.51 478.1l336.51 -478.1 14.18 10 -336.51 478.1 -7.09 3.68 -7.09 -13.68zm14.18 10l-2.59 3.68 -4.5 0 7.09 -3.68zm-129.51 -13.68l122.42 0 0 17.36 -122.42 0 -8.67 -8.68 8.67 -8.68zm0 17.36l-8.67 0 0 -8.68 8.67 8.68zm8.67 -717.83l0 709.15 -17.34 0 0 -709.15 8.67 -8.68 8.67 8.68zm-17.34 0l0 -8.68 8.67 0 -8.67 8.68zm139.59 8.68l-130.92 0 0 -17.36 130.92 0 8.67 8.68 -8.67 8.68zm0 -17.36l8.67 0 0 8.68 -8.67 -8.68zm-8.67 495.53l0 -486.85 17.34 0 0 486.85 -1.53 4.93 -15.81 -4.93zm15.81 4.93l-15.81 22.94 0 -27.87 15.81 4.93zm335.56 -486.85l-335.56 486.85 -14.28 -9.86 335.56 -486.85 7.14 -3.75 7.14 13.61zm-14.28 -9.86l2.58 -3.75 4.56 0 -7.14 3.75zm130.05 13.61l-122.91 0 0 -17.36 122.91 0 8.67 8.68 -8.67 8.68zm0 -17.36l8.67 0 0 8.68 -8.67 -8.68zm-8.67 717.83l0 -709.15 17.34 0 0 709.15 -8.67 8.68 -8.67 -8.68zm17.34 0l0 8.68 -8.67 0 8.67 -8.68zm-139.13 -8.68l130.46 0 0 17.36 -130.46 0 -8.67 -8.68 8.67 -8.68zm0 17.36l-8.67 0 0 -8.68 8.67 8.68z"/>
    </g>
    <g>
     <path class="fil6" d="M7402.59 14020.67c124.67,0 208.34,-106.69 208.34,-265.92 0,-159.25 -83.67,-265.26 -208.34,-265.26 -125.13,0 -208.01,106.01 -208.01,265.26 0,159.23 82.88,265.92 208.01,265.92zm0 -627.46c211.58,0 352.62,144.79 352.62,361.54 0,217.31 -141.04,361.5 -352.62,361.5 -211.72,0 -351.83,-144.19 -351.83,-361.5 0,-216.75 140.11,-361.54 351.83,-361.54z"/>
     <path id="_1_3" class="fil7" d="M7602.26 13754.75l17.34 0 0 0 -0.24 15.06 -0.75 14.76 -1.23 14.42 -1.7 14.1 -2.18 13.76 -2.64 13.41 -3.1 13.06 -3.55 12.68 -4 12.29 -4.43 11.9 -4.87 11.5 -5.29 11.09 -5.72 10.67 -6.11 10.23 -6.53 9.78 -6.93 9.32 -7.31 8.85 -7.71 8.36 -8.06 7.87 -8.44 7.36 -8.8 6.84 -9.15 6.3 -9.49 5.75 -9.81 5.19 -10.13 4.62 -10.43 4.03 -10.74 3.45 -11 2.83 -11.29 2.23 -11.55 1.6 -11.79 0.97 -12.04 0.32 0 -17.36 11.1 -0.3 10.83 -0.89 10.59 -1.46 10.31 -2.03 10.04 -2.59 9.76 -3.13 9.49 -3.67 9.21 -4.2 8.91 -4.71 8.61 -5.23 8.33 -5.74 8.02 -6.22 7.7 -6.72 7.4 -7.21 7.07 -7.68 6.73 -8.15 6.39 -8.6 6.05 -9.06 5.69 -9.51 5.32 -9.95 4.95 -10.37 4.57 -10.8 4.17 -11.2 3.78 -11.61 3.37 -12 2.94 -12.38 2.5 -12.77 2.08 -13.12 1.64 -13.48 1.17 -13.82 0.71 -14.16 0.24 -14.48 0 0zm-199.67 -256.58l0 -17.36 0 0 12.03 0.32 11.79 0.96 11.55 1.59 11.29 2.21 11 2.82 10.73 3.42 10.44 4.02 10.13 4.59 9.81 5.17 9.48 5.73 9.15 6.27 8.8 6.8 8.44 7.33 8.07 7.83 7.71 8.34 7.31 8.82 6.93 9.29 6.53 9.75 6.12 10.2 5.71 10.64 5.29 11.06 4.87 11.48 4.44 11.88 4 12.27 3.55 12.66 3.1 13.03 2.64 13.39 2.18 13.75 1.7 14.09 1.23 14.42 0.75 14.75 0.24 15.06 -17.34 0 -0.24 -14.48 -0.71 -14.15 -1.17 -13.82 -1.64 -13.47 -2.08 -13.11 -2.5 -12.75 -2.94 -12.35 -3.37 -11.98 -3.78 -11.59 -4.16 -11.18 -4.57 -10.76 -4.95 -10.34 -5.33 -9.92 -5.68 -9.48 -6.05 -9.03 -6.39 -8.57 -6.73 -8.12 -7.07 -7.64 -7.39 -7.17 -7.7 -6.69 -8.02 -6.2 -8.33 -5.71 -8.62 -5.21 -8.91 -4.69 -9.21 -4.17 -9.48 -3.66 -9.77 -3.12 -10.04 -2.56 -10.31 -2.03 -10.59 -1.45 -10.83 -0.88 -11.11 -0.3 0 0zm-199.34 256.58l-17.34 0 0 0 0.24 -15.06 0.74 -14.74 1.21 -14.42 1.7 -14.09 2.16 -13.74 2.61 -13.4 3.08 -13.03 3.54 -12.65 3.96 -12.27 4.41 -11.89 4.84 -11.47 5.26 -11.06 5.68 -10.64 6.1 -10.21 6.5 -9.75 6.9 -9.29 7.29 -8.82 7.68 -8.34 8.05 -7.83 8.43 -7.33 8.78 -6.8 9.13 -6.28 9.48 -5.73 9.81 -5.17 10.12 -4.59 10.45 -4.02 10.73 -3.42 11.04 -2.82 11.29 -2.21 11.57 -1.59 11.83 -0.96 12.07 -0.32 0 17.36 -11.15 0.3 -10.87 0.88 -10.61 1.45 -10.33 2.03 -10.06 2.56 -9.77 3.12 -9.49 3.66 -9.2 4.17 -8.91 4.69 -8.6 5.21 -8.31 5.7 -8 6.2 -7.69 6.69 -7.37 7.17 -7.04 7.64 -6.71 8.12 -6.36 8.57 -6.02 9.03 -5.66 9.47 -5.3 9.92 -4.92 10.34 -4.54 10.77 -4.15 11.17 -3.74 11.59 -3.34 11.99 -2.92 12.35 -2.49 12.74 -2.06 13.12 -1.62 13.47 -1.17 13.82 -0.7 14.16 -0.24 14.48 0 0zm199.34 257.24l0 17.36 0 0 -12.08 -0.32 -11.82 -0.97 -11.58 -1.6 -11.29 -2.22 -11.04 -2.84 -10.73 -3.44 -10.45 -4.04 -10.13 -4.62 -9.81 -5.19 -9.47 -5.75 -9.13 -6.31 -8.78 -6.83 -8.43 -7.36 -8.05 -7.88 -7.68 -8.36 -7.29 -8.86 -6.9 -9.31 -6.5 -9.78 -6.09 -10.24 -5.68 -10.67 -5.26 -11.08 -4.84 -11.51 -4.41 -11.9 -3.96 -12.29 -3.54 -12.68 -3.08 -13.05 -2.61 -13.42 -2.16 -13.75 -1.7 -14.1 -1.21 -14.42 -0.74 -14.75 -0.24 -15.06 17.34 0 0.24 14.48 0.7 14.17 1.17 13.82 1.62 13.48 2.06 13.13 2.49 12.76 2.92 12.39 3.34 12 3.74 11.61 4.15 11.2 4.54 10.79 4.92 10.38 5.3 9.95 5.67 9.5 6.02 9.06 6.36 8.61 6.71 8.14 7.04 7.68 7.37 7.2 7.69 6.72 8 6.23 8.31 5.73 8.61 5.23 8.91 4.71 9.19 4.2 9.49 3.66 9.77 3.14 10.06 2.58 10.33 2.04 10.6 1.46 10.88 0.89 11.14 0.3 0 0zm361.29 -257.24l-17.34 0 0 0 -0.4 -19.75 -1.21 -19.31 -1.98 -18.84 -2.75 -18.39 -3.52 -17.89 -4.25 -17.41 -4.99 -16.91 -5.69 -16.38 -6.4 -15.86 -7.08 -15.32 -7.76 -14.76 -8.42 -14.2 -9.07 -13.63 -9.7 -13.04 -10.34 -12.46 -10.94 -11.84 -11.55 -11.22 -12.13 -10.6 -12.72 -9.95 -13.28 -9.3 -13.84 -8.62 -14.38 -7.95 -14.93 -7.27 -15.44 -6.56 -15.96 -5.83 -16.47 -5.11 -16.96 -4.35 -17.44 -3.61 -17.91 -2.82 -18.37 -2.03 -18.81 -1.24 -19.26 -0.41 0 -17.36 20 0.43 19.59 1.28 19.15 2.13 18.71 2.94 18.24 3.77 17.78 4.57 17.29 5.35 16.78 6.15 16.26 6.9 15.73 7.65 15.18 8.39 14.62 9.12 14.04 9.82 13.44 10.53 12.83 11.2 12.21 11.88 11.58 12.52 10.92 13.16 10.26 13.78 9.57 14.39 8.88 14.96 8.16 15.56 7.46 16.1 6.72 16.66 5.97 17.18 5.21 17.69 4.45 18.19 3.66 18.67 2.87 19.15 2.06 19.6 1.25 20.03 0.42 20.47 0 0zm-361.29 370.18l0 -17.36 0 0 19.26 -0.41 18.82 -1.23 18.36 -2.02 17.92 -2.82 17.43 -3.59 16.97 -4.34 16.47 -5.1 15.96 -5.82 15.44 -6.54 14.93 -7.23 14.38 -7.94 13.84 -8.61 13.28 -9.28 12.71 -9.94 12.13 -10.57 11.55 -11.21 10.94 -11.83 10.34 -12.43 9.7 -13.03 9.07 -13.62 8.42 -14.21 7.76 -14.75 7.08 -15.33 6.4 -15.86 5.69 -16.39 4.99 -16.92 4.25 -17.42 3.52 -17.94 2.75 -18.4 1.98 -18.89 1.21 -19.35 0.4 -19.8 17.34 0 -0.42 20.52 -1.25 20.07 -2.06 19.63 -2.87 19.18 -3.66 18.7 -4.45 18.22 -5.21 17.7 -5.97 17.19 -6.72 16.66 -7.46 16.11 -8.16 15.55 -8.88 14.97 -9.57 14.38 -10.26 13.77 -10.92 13.15 -11.58 12.51 -12.21 11.85 -12.83 11.19 -13.45 10.5 -14.04 9.82 -14.62 9.09 -15.18 8.38 -15.73 7.63 -16.26 6.88 -16.78 6.12 -17.29 5.34 -17.77 4.56 -18.25 3.75 -18.7 2.94 -19.16 2.12 -19.58 1.27 -20 0.43 0 0zm-360.5 -370.18l17.34 0 0 0 0.4 19.81 1.2 19.34 1.97 18.89 2.74 18.41 3.49 17.93 4.24 17.43 4.95 16.92 5.66 16.4 6.36 15.86 7.06 15.32 7.73 14.76 8.38 14.2 9.03 13.62 9.66 13.03 10.29 12.44 10.9 11.82 11.51 11.21 12.09 10.57 12.67 9.93 13.25 9.29 13.8 8.61 14.35 7.93 14.89 7.24 15.43 6.53 15.94 5.82 16.44 5.1 16.94 4.34 17.43 3.59 17.91 2.82 18.36 2.02 18.82 1.23 19.27 0.41 0 17.36 -20.01 -0.43 -19.58 -1.27 -19.16 -2.12 -18.69 -2.94 -18.25 -3.75 -17.76 -4.56 -17.26 -5.34 -16.76 -6.12 -16.23 -6.89 -15.71 -7.62 -15.15 -8.39 -14.58 -9.09 -14.01 -9.81 -13.41 -10.51 -12.79 -11.19 -12.17 -11.85 -11.54 -12.52 -10.87 -13.14 -10.22 -13.77 -9.53 -14.38 -8.84 -14.98 -8.13 -15.54 -7.42 -16.12 -6.68 -16.66 -5.94 -17.18 -5.19 -17.7 -4.42 -18.21 -3.65 -18.71 -2.84 -19.17 -2.05 -19.63 -1.24 -20.08 -0.42 -20.51 0 0zm360.5 -370.22l0 17.36 0 0 -19.27 0.41 -18.81 1.24 -18.37 2.03 -17.9 2.82 -17.44 3.61 -16.94 4.35 -16.44 5.1 -15.94 5.84 -15.42 6.56 -14.89 7.26 -14.35 7.95 -13.81 8.63 -13.25 9.29 -12.67 9.95 -12.09 10.6 -11.51 11.22 -10.9 11.84 -10.28 12.45 -9.67 13.05 -9.03 13.63 -8.38 14.19 -7.73 14.77 -7.06 15.31 -6.36 15.87 -5.66 16.38 -4.96 16.91 -4.23 17.41 -3.49 17.89 -2.74 18.39 -1.97 18.85 -1.2 19.31 -0.4 19.75 -17.34 0 0.42 -20.47 1.24 -20.03 2.05 -19.59 2.84 -19.15 3.65 -18.67 4.43 -18.19 5.18 -17.69 5.94 -17.18 6.68 -16.65 7.42 -16.11 8.13 -15.55 8.84 -14.97 9.53 -14.39 10.21 -13.77 10.88 -13.17 11.54 -12.52 12.17 -11.88 12.79 -11.2 13.41 -10.53 14.01 -9.83 14.57 -9.11 15.15 -8.39 15.71 -7.66 16.24 -6.9 16.76 -6.14 17.26 -5.36 17.76 -4.57 18.24 -3.77 18.7 -2.94 19.15 -2.13 19.59 -1.28 20.01 -0.43 0 0z"/>
    </g>
    <g>
     <polygon class="fil6" points="7893.53,13400.72 8032.94,13400.72 8032.94,13695.55 8344.89,13695.55 8344.89,13400.72 8483.99,13400.72 8483.99,14109.87 8344.89,14109.87 8344.89,13784.19 8032.94,13784.19 8032.94,14109.87 7893.53,14109.87 "/>
     <path id="_1_4" class="fil7" d="M8032.94 13409.4l-139.41 0 0 -17.36 139.41 0 8.67 8.68 -8.67 8.68zm0 -17.36l8.67 0 0 8.68 -8.67 -8.68zm-8.67 303.51l0 -294.83 17.34 0 0 294.83 -8.67 8.68 -8.67 -8.68zm8.67 8.68l-8.67 0 0 -8.68 8.67 8.68zm311.95 0l-311.95 0 0 -17.36 311.95 0 8.67 8.68 -8.67 8.68zm8.67 -8.68l0 8.68 -8.67 0 8.67 -8.68zm0 -294.83l0 294.83 -17.34 0 0 -294.83 8.67 -8.68 8.67 8.68zm-17.34 0l0 -8.68 8.67 0 -8.67 8.68zm147.77 8.68l-139.1 0 0 -17.36 139.1 0 8.67 8.68 -8.67 8.68zm0 -17.36l8.67 0 0 8.68 -8.67 -8.68zm-8.67 717.83l0 -709.15 17.34 0 0 709.15 -8.67 8.68 -8.67 -8.68zm17.34 0l0 8.68 -8.67 0 8.67 -8.68zm-147.77 -8.68l139.1 0 0 17.36 -139.1 0 -8.67 -8.68 8.67 -8.68zm0 17.36l-8.67 0 0 -8.68 8.67 8.68zm8.67 -334.36l0 325.68 -17.34 0 0 -325.68 8.67 -8.68 8.67 8.68zm-8.67 -8.68l8.67 0 0 8.68 -8.67 -8.68zm-311.95 0l311.95 0 0 17.36 -311.95 0 -8.67 -8.68 8.67 -8.68zm-8.67 8.68l0 -8.68 8.67 0 -8.67 8.68zm0 325.68l0 -325.68 17.34 0 0 325.68 -8.67 8.68 -8.67 -8.68zm17.34 0l0 8.68 -8.67 0 8.67 -8.68zm-148.08 -8.68l139.41 0 0 17.36 -139.41 0 -8.67 -8.68 8.67 -8.68zm0 17.36l-8.67 0 0 -8.68 8.67 8.68zm8.67 -717.83l0 709.15 -17.34 0 0 -709.15 8.67 -8.68 8.67 8.68zm-17.34 0l0 -8.68 8.67 0 -8.67 8.68z"/>
    </g>
    <g>
     <path class="fil8" d="M9024.09 14116.25c-230.69,0 -385.38,-144.19 -385.38,-361.5 0,-216.88 154.69,-361.54 385.38,-361.54 55.92,0 117.15,8.61 163.53,18.9l0 127.27c-39.14,-25.28 -84.33,-43.07 -147.09,-43.07 -152.12,0 -253.68,103.67 -253.68,258.44 0,155.6 94.6,258.95 237.24,258.95 61.86,0 124.39,-17.5 163.53,-42.81l0 126.47c-46.38,10.83 -107.61,18.89 -163.53,18.89z"/>
     <path id="_1_5" class="fil8" d="M8630.04 13754.75l17.34 0 0 0 0.44 19.77 1.31 19.31 2.18 18.85 3.02 18.38 3.84 17.9 4.66 17.39 5.44 16.89 6.23 16.37 7 15.84 7.76 15.31 8.48 14.75 9.22 14.2 9.92 13.62 10.64 13.03 11.3 12.45 11.99 11.84 12.65 11.22 13.3 10.6 13.93 9.96 14.57 9.31 15.17 8.63 15.77 7.96 16.35 7.26 16.94 6.56 17.49 5.84 18.05 5.12 18.58 4.36 19.11 3.6 19.61 2.82 20.11 2.04 20.59 1.23 21.06 0.41 0 17.36 -21.74 -0.43 -21.29 -1.27 -20.83 -2.1 -20.35 -2.94 -19.85 -3.74 -19.34 -4.54 -18.81 -5.32 -18.27 -6.1 -17.7 -6.86 -17.13 -7.6 -16.55 -8.36 -15.93 -9.07 -15.31 -9.79 -14.67 -10.48 -14.02 -11.16 -13.33 -11.84 -12.65 -12.5 -11.94 -13.13 -11.22 -13.77 -10.48 -14.38 -9.72 -14.98 -8.96 -15.55 -8.16 -16.13 -7.38 -16.68 -6.55 -17.21 -5.72 -17.73 -4.88 -18.25 -4.02 -18.74 -3.16 -19.2 -2.26 -19.67 -1.37 -20.11 -0.46 -20.55 0 0zm394.05 -370.22l0 17.36 0 0 -21.06 0.41 -20.59 1.24 -20.11 2.04 -19.61 2.83 -19.11 3.61 -18.58 4.37 -18.04 5.12 -17.5 5.85 -16.93 6.58 -16.35 7.28 -15.78 7.98 -15.17 8.65 -14.56 9.32 -13.94 9.97 -13.3 10.61 -12.64 11.24 -11.99 11.85 -11.31 12.45 -10.63 13.05 -9.93 13.63 -9.22 14.2 -8.48 14.75 -7.76 15.31 -7 15.83 -6.23 16.37 -5.44 16.88 -4.66 17.38 -3.84 17.88 -3.02 18.35 -2.18 18.82 -1.31 19.28 -0.44 19.73 -17.34 0 0.46 -20.51 1.37 -20.08 2.26 -19.64 3.16 -19.19 4.02 -18.72 4.88 -18.22 5.72 -17.72 6.55 -17.21 7.38 -16.67 8.16 -16.13 8.96 -15.55 9.72 -14.98 10.47 -14.39 11.23 -13.77 11.93 -13.15 12.65 -12.51 13.34 -11.84 14.02 -11.19 14.66 -10.49 15.32 -9.8 15.93 -9.09 16.54 -8.36 17.13 -7.62 17.71 -6.88 18.26 -6.11 18.82 -5.34 19.34 -4.55 19.85 -3.75 20.35 -2.95 20.83 -2.1 21.29 -1.28 21.74 -0.43 0 0zm172.2 27.58l-17.34 0 6.79 8.47 -4.33 -0.94 -4.43 -0.94 -4.5 -0.92 -4.58 -0.92 -4.65 -0.89 -4.72 -0.89 -4.78 -0.86 -4.84 -0.84 -4.91 -0.84 -4.96 -0.8 -5 -0.78 -5.06 -0.76 -5.1 -0.74 -5.13 -0.71 -5.17 -0.68 -5.2 -0.65 -5.23 -0.63 -5.24 -0.59 -5.27 -0.56 -5.29 -0.52 -5.3 -0.49 -5.3 -0.46 -5.31 -0.41 -5.32 -0.38 -5.3 -0.35 -5.3 -0.29 -5.29 -0.26 -5.27 -0.21 -5.26 -0.16 -5.23 -0.12 -5.2 -0.07 -5.18 -0.03 0 -17.36 5.34 0.03 5.36 0.07 5.39 0.12 5.4 0.18 5.41 0.21 5.43 0.26 5.44 0.31 5.44 0.35 5.42 0.38 5.45 0.43 5.42 0.46 5.42 0.51 5.39 0.54 5.39 0.56 5.36 0.61 5.33 0.63 5.32 0.67 5.27 0.7 5.23 0.73 5.2 0.74 5.16 0.78 5.1 0.8 5.06 0.82 5.01 0.84 4.94 0.86 4.9 0.88 4.82 0.91 4.75 0.91 4.68 0.94 4.6 0.94 4.53 0.96 4.45 0.98 6.79 8.47zm-6.79 -8.47l6.79 1.51 0 6.96 -6.79 -8.47zm-10.55 135.74l0 -127.27 17.34 0 0 127.27 -13.37 7.29 -3.97 -7.29zm17.34 0l0 15.93 -13.37 -8.64 13.37 -7.29zm-155.76 -34.39l0 -17.36 0 0 5.99 0.05 5.88 0.17 5.79 0.25 5.7 0.36 5.62 0.47 5.52 0.56 5.4 0.66 5.35 0.75 5.26 0.85 5.16 0.93 5.08 1.03 5.01 1.1 4.92 1.2 4.86 1.28 4.78 1.37 4.69 1.43 4.62 1.51 4.58 1.59 4.49 1.67 4.43 1.72 4.36 1.81 4.31 1.87 4.23 1.93 4.17 1.99 4.14 2.05 4.07 2.12 4.02 2.16 3.97 2.22 3.91 2.27 3.87 2.31 3.83 2.37 3.78 2.41 -9.4 14.58 -3.6 -2.29 -3.61 -2.23 -3.67 -2.19 -3.69 -2.15 -3.73 -2.08 -3.78 -2.04 -3.81 -1.98 -3.86 -1.91 -3.93 -1.87 -3.97 -1.81 -4.01 -1.75 -4.06 -1.67 -4.13 -1.62 -4.19 -1.55 -4.24 -1.47 -4.32 -1.41 -4.39 -1.35 -4.44 -1.27 -4.52 -1.18 -4.6 -1.12 -4.67 -1.04 -4.76 -0.95 -4.84 -0.89 -4.9 -0.79 -5.01 -0.69 -5.1 -0.62 -5.18 -0.54 -5.28 -0.43 -5.36 -0.34 -5.49 -0.25 -5.58 -0.15 -5.67 -0.05 0 0zm-245.01 249.76l-17.34 0 0 0 0.31 -14.72 0.9 -14.42 1.5 -14.11 2.08 -13.78 2.66 -13.46 3.23 -13.11 3.79 -12.75 4.34 -12.39 4.88 -12.02 5.42 -11.62 5.93 -11.24 6.46 -10.81 6.96 -10.39 7.46 -9.96 7.94 -9.51 8.41 -9.05 8.89 -8.59 9.34 -8.09 9.77 -7.61 10.2 -7.1 10.63 -6.6 11.04 -6.05 11.42 -5.54 11.81 -4.98 12.18 -4.44 12.55 -3.87 12.9 -3.3 13.23 -2.71 13.56 -2.13 13.88 -1.54 14.2 -0.92 14.48 -0.31 0 17.36 -13.74 0.29 -13.42 0.88 -13.1 1.44 -12.78 2.01 -12.43 2.55 -12.08 3.1 -11.73 3.61 -11.36 4.14 -11.01 4.64 -10.62 5.14 -10.24 5.63 -9.85 6.1 -9.44 6.58 -9.05 7.05 -8.64 7.49 -8.21 7.93 -7.79 8.37 -7.34 8.81 -6.92 9.22 -6.44 9.63 -6 10.05 -5.53 10.44 -5.04 10.84 -4.56 11.22 -4.06 11.59 -3.55 11.97 -3.05 12.31 -2.5 12.68 -1.96 13.02 -1.42 13.35 -0.86 13.68 -0.29 14 0 0zm228.57 250.27l0 17.36 0 0 -13.63 -0.31 -13.34 -0.93 -13.06 -1.53 -12.76 -2.13 -12.44 -2.72 -12.12 -3.31 -11.79 -3.88 -11.46 -4.44 -11.09 -5 -10.72 -5.55 -10.36 -6.08 -9.96 -6.61 -9.57 -7.11 -9.15 -7.63 -8.73 -8.11 -8.32 -8.59 -7.87 -9.07 -7.43 -9.54 -6.95 -9.96 -6.51 -10.41 -6.02 -10.83 -5.54 -11.23 -5.04 -11.65 -4.55 -12.03 -4.04 -12.4 -3.53 -12.78 -3 -13.13 -2.48 -13.49 -1.93 -13.81 -1.39 -14.14 -0.84 -14.47 -0.29 -14.76 17.34 0 0.27 14.1 0.8 13.77 1.33 13.44 1.83 13.11 2.34 12.75 2.84 12.39 3.31 12.02 3.8 11.64 4.25 11.27 4.72 10.87 5.16 10.47 5.6 10.07 6.03 9.65 6.45 9.24 6.85 8.8 7.27 8.37 7.66 7.93 8.05 7.47 8.43 7.03 8.81 6.55 9.18 6.09 9.54 5.6 9.9 5.11 10.25 4.62 10.6 4.12 10.93 3.6 11.26 3.07 11.6 2.54 11.92 1.99 12.22 1.43 12.54 0.87 12.83 0.29 0 0zm172.2 -34.13l-17.34 0 13.37 7.29 -3.92 2.47 -4.05 2.41 -4.17 2.34 -4.28 2.3 -4.42 2.23 -4.51 2.17 -4.62 2.11 -4.72 2.05 -4.84 1.98 -4.91 1.91 -5.01 1.85 -5.1 1.78 -5.18 1.71 -5.25 1.63 -5.33 1.57 -5.41 1.49 -5.47 1.4 -5.51 1.33 -5.59 1.26 -5.64 1.17 -5.69 1.09 -5.73 1 -5.77 0.91 -5.82 0.83 -5.83 0.74 -5.87 0.65 -5.91 0.55 -5.91 0.45 -5.92 0.36 -5.95 0.25 -5.95 0.16 -5.95 0.05 0 -17.36 5.65 -0.05 5.65 -0.14 5.65 -0.25 5.64 -0.34 5.63 -0.43 5.61 -0.53 5.59 -0.61 5.57 -0.7 5.54 -0.79 5.51 -0.87 5.45 -0.96 5.43 -1.03 5.36 -1.11 5.31 -1.2 5.27 -1.27 5.19 -1.34 5.13 -1.41 5.05 -1.49 4.99 -1.55 4.9 -1.61 4.8 -1.68 4.73 -1.75 4.63 -1.79 4.52 -1.86 4.42 -1.91 4.32 -1.97 4.19 -2.01 4.06 -2.07 3.96 -2.12 3.83 -2.16 3.69 -2.19 3.56 -2.23 13.37 7.29zm-13.37 -7.29l13.37 -8.65 0 15.94 -13.37 -7.29zm-3.97 133.76l0 -126.47 17.34 0 0 126.47 -6.7 8.45 -10.64 -8.45zm17.34 0l0 6.89 -6.7 1.56 6.7 -8.45zm-172.2 27.57l0 -17.36 0 0 5.19 -0.02 5.19 -0.07 5.24 -0.12 5.27 -0.15 5.27 -0.2 5.29 -0.25 5.31 -0.28 5.3 -0.32 5.31 -0.36 5.32 -0.4 5.3 -0.44 5.29 -0.47 5.29 -0.52 5.27 -0.54 5.25 -0.58 5.22 -0.6 5.2 -0.64 5.16 -0.67 5.13 -0.71 5.1 -0.72 5.05 -0.76 4.99 -0.78 4.96 -0.81 4.9 -0.83 4.83 -0.86 4.79 -0.88 4.71 -0.9 4.64 -0.92 4.57 -0.94 4.48 -0.95 4.41 -0.98 4.33 -0.99 3.94 16.9 -4.45 1.03 -4.55 1 -4.62 0.99 -4.69 0.96 -4.76 0.94 -4.83 0.92 -4.89 0.9 -4.95 0.88 -5.02 0.85 -5.06 0.83 -5.11 0.8 -5.17 0.78 -5.2 0.74 -5.23 0.71 -5.28 0.69 -5.32 0.66 -5.34 0.62 -5.35 0.58 -5.39 0.56 -5.39 0.52 -5.43 0.49 -5.42 0.44 -5.44 0.42 -5.43 0.36 -5.44 0.34 -5.43 0.28 -5.43 0.25 -5.41 0.2 -5.39 0.17 -5.38 0.12 -5.37 0.07 -5.33 0.02 0 0z"/>
    </g>
    <g>
     <polygon class="fil8" points="9876.27,13400.72 9876.27,13496.31 9646.58,13496.31 9646.58,14109.87 9506.31,14109.87 9506.31,13496.31 9277.93,13496.31 9277.93,13400.72 "/>
     <path id="_1_6" class="fil8" d="M9867.6 13496.31l0 -95.59 17.34 0 0 95.59 -8.67 8.68 -8.67 -8.68zm17.34 0l0 8.68 -8.67 0 8.67 -8.68zm-238.36 -8.68l229.69 0 0 17.36 -229.69 0 -8.67 -8.68 8.67 -8.68zm-8.67 8.68l0 -8.68 8.67 0 -8.67 8.68zm0 613.56l0 -613.56 17.34 0 0 613.56 -8.67 8.68 -8.67 -8.68zm17.34 0l0 8.68 -8.67 0 8.67 -8.68zm-148.94 -8.68l140.27 0 0 17.36 -140.27 0 -8.67 -8.68 8.67 -8.68zm0 17.36l-8.67 0 0 -8.68 8.67 8.68zm8.67 -622.24l0 613.56 -17.34 0 0 -613.56 8.67 -8.68 8.67 8.68zm-8.67 -8.68l8.67 0 0 8.68 -8.67 -8.68zm-228.38 0l228.38 0 0 17.36 -228.38 0 -8.67 -8.68 8.67 -8.68zm0 17.36l-8.67 0 0 -8.68 8.67 8.68zm8.67 -104.27l0 95.59 -17.34 0 0 -95.59 8.67 -8.68 8.67 8.68zm-17.34 0l0 -8.68 8.67 0 -8.67 8.68zm607.01 8.68l-598.34 0 0 -17.36 598.34 0 8.67 8.68 -8.67 8.68zm0 -17.36l8.67 0 0 8.68 -8.67 -8.68z"/>
    </g>
    <g>
     <path class="fil8" d="M10234.46 13769.89c111.84,0 187.24,-59.62 187.24,-147.12 0,-80.05 -75.4,-133.28 -187.24,-133.28l-96.51 0 0 280.4 96.51 0zm-235.44 -369.17l229.43 0c202.02,0 336.37,88.77 336.37,222.05 0,141.14 -131.09,234.78 -328.95,234.78l-97.92 0 0 251.21 -138.93 0 0 -708.04z"/>
     <path id="_1_7" class="fil8" d="M10413.03 13622.77l17.34 0 0 0 -0.23 8.59 -0.69 8.44 -1.16 8.26 -1.6 8.08 -2.03 7.9 -2.49 7.7 -2.9 7.49 -3.32 7.28 -3.74 7.06 -4.13 6.81 -4.53 6.57 -4.9 6.33 -5.29 6.08 -5.64 5.81 -6.01 5.54 -6.33 5.25 -6.68 4.99 -6.99 4.69 -7.31 4.4 -7.62 4.11 -7.91 3.8 -8.2 3.5 -8.49 3.19 -8.75 2.87 -9.02 2.55 -9.28 2.23 -9.53 1.89 -9.77 1.57 -10.01 1.22 -10.24 0.89 -10.45 0.53 -10.67 0.18 0 -17.36 10.09 -0.16 9.85 -0.51 9.62 -0.83 9.39 -1.14 9.13 -1.47 8.87 -1.77 8.62 -2.07 8.34 -2.35 8.07 -2.65 7.79 -2.93 7.48 -3.2 7.21 -3.46 6.9 -3.71 6.59 -3.98 6.29 -4.21 5.96 -4.45 5.65 -4.69 5.31 -4.9 4.98 -5.13 4.65 -5.34 4.3 -5.55 3.97 -5.77 3.61 -5.95 3.26 -6.16 2.9 -6.34 2.54 -6.55 2.17 -6.74 1.79 -6.92 1.4 -7.1 1.02 -7.3 0.61 -7.46 0.21 -7.65 0 0zm-178.57 -124.6l0 -17.36 0 0 10.64 0.16 10.42 0.48 10.2 0.78 9.99 1.09 9.74 1.4 9.49 1.69 9.26 1.99 8.99 2.29 8.73 2.56 8.47 2.86 8.17 3.14 7.89 3.41 7.61 3.69 7.31 3.96 6.99 4.23 6.68 4.49 6.34 4.76 6.02 5.01 5.65 5.27 5.32 5.51 4.93 5.77 4.56 5.99 4.16 6.23 3.77 6.46 3.35 6.67 2.94 6.88 2.51 7.09 2.06 7.29 1.62 7.44 1.17 7.63 0.7 7.8 0.23 7.94 -17.34 0 -0.21 -6.92 -0.6 -6.72 -1.01 -6.57 -1.38 -6.4 -1.76 -6.21 -2.15 -6.05 -2.5 -5.88 -2.87 -5.71 -3.23 -5.52 -3.58 -5.35 -3.94 -5.19 -4.27 -4.99 -4.62 -4.81 -4.97 -4.61 -5.3 -4.43 -5.64 -4.22 -5.96 -4.01 -6.29 -3.81 -6.59 -3.58 -6.91 -3.35 -7.23 -3.11 -7.51 -2.88 -7.81 -2.64 -8.09 -2.38 -8.37 -2.13 -8.64 -1.85 -8.91 -1.59 -9.16 -1.32 -9.41 -1.03 -9.66 -0.74 -9.88 -0.44 -10.12 -0.16 0 0zm-96.51 -17.36l96.51 0 0 17.36 -96.51 0 -8.67 -8.68 8.67 -8.68zm-8.67 8.68l0 -8.68 8.67 0 -8.67 8.68zm0 280.4l0 -280.4 17.34 0 0 280.4 -8.67 8.68 -8.67 -8.68zm8.67 8.68l-8.67 0 0 -8.68 8.67 8.68zm96.51 0l-96.51 0 0 -17.36 96.51 0 0 0 0 17.36zm-6.01 -369.17l-229.43 0 0 -17.36 229.43 0 0 0 0 17.36zm345.04 213.37l-17.34 0 0 0 -0.37 -11.81 -1.12 -11.53 -1.84 -11.25 -2.54 -10.97 -3.26 -10.69 -3.93 -10.38 -4.62 -10.11 -5.29 -9.81 -5.96 -9.52 -6.61 -9.21 -7.26 -8.9 -7.89 -8.59 -8.54 -8.25 -9.15 -7.93 -9.77 -7.58 -10.38 -7.22 -10.97 -6.87 -11.56 -6.5 -12.13 -6.11 -12.69 -5.71 -13.24 -5.32 -13.79 -4.9 -14.31 -4.48 -14.82 -4.05 -15.34 -3.6 -15.81 -3.15 -16.29 -2.69 -16.76 -2.23 -17.22 -1.74 -17.66 -1.25 -18.08 -0.76 -18.5 -0.26 0 -17.36 18.98 0.26 18.58 0.78 18.16 1.29 17.74 1.8 17.3 2.29 16.85 2.79 16.39 3.27 15.92 3.74 15.42 4.21 14.93 4.68 14.43 5.12 13.9 5.58 13.37 6.01 12.81 6.47 12.26 6.88 11.67 7.31 11.1 7.72 10.49 8.14 9.87 8.55 9.24 8.95 8.59 9.33 7.92 9.72 7.25 10.09 6.54 10.46 5.83 10.81 5.1 11.15 4.35 11.48 3.58 11.79 2.82 12.11 2.02 12.37 1.22 12.67 0.41 12.91 0 0zm-337.62 243.46l0 -17.36 0 0 18.09 -0.27 17.68 -0.8 17.26 -1.32 16.83 -1.84 16.38 -2.34 15.92 -2.84 15.45 -3.32 14.97 -3.8 14.48 -4.26 13.97 -4.73 13.46 -5.16 12.92 -5.6 12.39 -6.03 11.84 -6.45 11.29 -6.84 10.7 -7.25 10.14 -7.64 9.54 -8 8.95 -8.38 8.34 -8.73 7.72 -9.09 7.11 -9.44 6.47 -9.76 5.84 -10.09 5.18 -10.42 4.54 -10.74 3.86 -11.07 3.19 -11.37 2.51 -11.67 1.8 -11.98 1.09 -12.29 0.37 -12.58 17.34 0 -0.39 13.6 -1.19 13.33 -1.96 13.04 -2.73 12.73 -3.49 12.41 -4.22 12.09 -4.96 11.74 -5.66 11.4 -6.38 11.03 -7.05 10.64 -7.73 10.26 -8.38 9.85 -9.02 9.45 -9.65 9.04 -10.26 8.6 -10.84 8.18 -11.44 7.73 -11.99 7.28 -12.54 6.83 -13.09 6.37 -13.62 5.9 -14.12 5.42 -14.63 4.95 -15.12 4.44 -15.59 3.96 -16.07 3.46 -16.52 2.94 -16.96 2.42 -17.39 1.9 -17.8 1.36 -18.22 0.84 -18.61 0.27 0 0zm-97.92 -17.36l97.92 0 0 17.36 -97.92 0 -8.67 -8.68 8.67 -8.68zm-8.67 8.68l0 -8.68 8.67 0 -8.67 8.68zm0 251.21l0 -251.21 17.34 0 0 251.21 -8.67 8.68 -8.67 -8.68zm17.34 0l0 8.68 -8.67 0 8.67 -8.68zm-147.6 -8.68l138.93 0 0 17.36 -138.93 0 -8.67 -8.68 8.67 -8.68zm0 17.36l-8.67 0 0 -8.68 8.67 8.68zm8.67 -716.72l0 708.04 -17.34 0 0 -708.04 8.67 -8.68 8.67 8.68zm-17.34 0l0 -8.68 8.67 0 -8.67 8.68z"/>
    </g>
    <g>
     <path class="fil8" d="M11006.46 14020.67c124.79,0 208.04,-106.69 208.04,-265.92 0,-159.25 -83.25,-265.26 -208.04,-265.26 -125.06,0 -208.33,106.01 -208.33,265.26 0,159.23 83.27,265.92 208.33,265.92zm0 -627.46c210.99,0 352.22,144.79 352.22,361.54 0,217.31 -141.23,361.5 -352.22,361.5 -211.9,0 -352.21,-144.19 -352.21,-361.5 0,-216.75 140.31,-361.54 352.21,-361.54z"/>
     <path id="_1_8" class="fil8" d="M11205.83 13754.75l17.34 0 0 0 -0.24 15.06 -0.75 14.75 -1.21 14.42 -1.7 14.1 -2.17 13.76 -2.64 13.41 -3.07 13.06 -3.55 12.68 -3.98 12.29 -4.42 11.9 -4.85 11.5 -5.27 11.09 -5.69 10.67 -6.11 10.23 -6.51 9.78 -6.9 9.32 -7.3 8.85 -7.69 8.37 -8.06 7.87 -8.43 7.36 -8.78 6.83 -9.13 6.31 -9.47 5.75 -9.81 5.19 -10.13 4.62 -10.42 4.03 -10.74 3.45 -11 2.83 -11.29 2.23 -11.55 1.6 -11.8 0.97 -12.05 0.32 0 -17.36 11.11 -0.3 10.84 -0.89 10.59 -1.46 10.31 -2.03 10.04 -2.59 9.76 -3.13 9.48 -3.67 9.19 -4.2 8.91 -4.71 8.61 -5.23 8.31 -5.73 8 -6.23 7.69 -6.72 7.38 -7.21 7.05 -7.67 6.72 -8.15 6.38 -8.6 6.03 -9.06 5.67 -9.51 5.31 -9.95 4.93 -10.37 4.55 -10.8 4.16 -11.2 3.76 -11.61 3.35 -12 2.93 -12.38 2.5 -12.77 2.07 -13.12 1.62 -13.48 1.17 -13.82 0.71 -14.17 0.24 -14.48 0 0zm-199.37 -256.58l0 -17.36 0 0 12.04 0.32 11.8 0.96 11.55 1.59 11.29 2.21 11 2.82 10.74 3.42 10.42 4.02 10.12 4.59 9.81 5.17 9.48 5.73 9.13 6.28 8.78 6.8 8.43 7.33 8.06 7.83 7.69 8.34 7.3 8.82 6.9 9.29 6.52 9.75 6.1 10.2 5.7 10.64 5.27 11.06 4.85 11.47 4.42 11.89 3.98 12.27 3.55 12.66 3.07 13.02 2.64 13.4 2.17 13.74 1.7 14.1 1.21 14.42 0.75 14.74 0.24 15.06 -17.34 0 -0.24 -14.48 -0.71 -14.16 -1.17 -13.82 -1.62 -13.46 -2.07 -13.12 -2.5 -12.74 -2.93 -12.36 -3.35 -11.98 -3.76 -11.59 -4.16 -11.17 -4.55 -10.77 -4.93 -10.34 -5.3 -9.92 -5.68 -9.48 -6.02 -9.03 -6.38 -8.57 -6.72 -8.12 -7.05 -7.64 -7.38 -7.17 -7.69 -6.69 -8 -6.2 -8.31 -5.7 -8.6 -5.21 -8.91 -4.69 -9.2 -4.17 -9.48 -3.66 -9.76 -3.12 -10.04 -2.56 -10.31 -2.03 -10.59 -1.45 -10.84 -0.88 -11.12 -0.3 0 0zm-199.66 256.58l-17.34 0 0 0 0.24 -15.06 0.75 -14.74 1.21 -14.42 1.7 -14.1 2.17 -13.74 2.64 -13.4 3.09 -13.02 3.54 -12.66 3.98 -12.27 4.42 -11.89 4.85 -11.47 5.29 -11.06 5.7 -10.64 6.11 -10.21 6.52 -9.75 6.91 -9.28 7.31 -8.83 7.7 -8.33 8.07 -7.84 8.43 -7.32 8.8 -6.81 9.15 -6.27 9.48 -5.73 9.82 -5.17 10.14 -4.59 10.44 -4.02 10.76 -3.42 11.02 -2.82 11.3 -2.21 11.57 -1.59 11.83 -0.96 12.06 -0.32 0 17.36 -11.14 0.3 -10.87 0.88 -10.61 1.45 -10.34 2.03 -10.06 2.56 -9.78 3.12 -9.5 3.66 -9.2 4.17 -8.92 4.69 -8.62 5.21 -8.33 5.71 -8 6.19 -7.71 6.7 -7.39 7.16 -7.06 7.65 -6.71 8.11 -6.39 8.58 -6.04 9.03 -5.67 9.47 -5.32 9.92 -4.93 10.34 -4.55 10.77 -4.16 11.17 -3.76 11.59 -3.36 11.98 -2.93 12.36 -2.5 12.74 -2.07 13.12 -1.62 13.46 -1.17 13.82 -0.71 14.16 -0.24 14.48 0 0zm199.66 257.24l0 17.36 0 0 -12.07 -0.32 -11.82 -0.97 -11.58 -1.6 -11.3 -2.22 -11.03 -2.84 -10.75 -3.44 -10.45 -4.04 -10.13 -4.62 -9.82 -5.19 -9.49 -5.75 -9.15 -6.3 -8.79 -6.84 -8.44 -7.36 -8.07 -7.87 -7.69 -8.37 -7.31 -8.85 -6.91 -9.31 -6.52 -9.79 -6.11 -10.23 -5.7 -10.67 -5.28 -11.09 -4.85 -11.5 -4.42 -11.9 -3.98 -12.29 -3.55 -12.68 -3.08 -13.05 -2.64 -13.42 -2.17 -13.76 -1.7 -14.1 -1.21 -14.42 -0.75 -14.75 -0.24 -15.06 17.34 0 0.24 14.48 0.71 14.17 1.17 13.82 1.62 13.48 2.07 13.12 2.5 12.76 2.94 12.39 3.35 12 3.76 11.61 4.16 11.2 4.55 10.8 4.94 10.37 5.32 9.95 5.67 9.51 6.04 9.05 6.39 8.61 6.71 8.15 7.07 7.67 7.39 7.21 7.7 6.72 8.01 6.22 8.33 5.74 8.61 5.23 8.92 4.71 9.21 4.2 9.49 3.66 9.79 3.14 10.05 2.58 10.34 2.04 10.6 1.46 10.88 0.89 11.13 0.3 0 0zm360.89 -257.24l-17.34 0 0 0 -0.4 -19.75 -1.21 -19.31 -1.98 -18.84 -2.76 -18.39 -3.52 -17.89 -4.25 -17.41 -4.99 -16.9 -5.7 -16.39 -6.4 -15.86 -7.08 -15.31 -7.77 -14.77 -8.42 -14.2 -9.07 -13.63 -9.71 -13.04 -10.32 -12.46 -10.95 -11.84 -11.53 -11.23 -12.13 -10.59 -12.71 -9.95 -13.27 -9.3 -13.82 -8.63 -14.38 -7.95 -14.89 -7.26 -15.42 -6.56 -15.94 -5.84 -16.44 -5.1 -16.93 -4.35 -17.4 -3.61 -17.87 -2.82 -18.32 -2.03 -18.78 -1.24 -19.19 -0.41 0 -17.36 19.95 0.43 19.54 1.28 19.1 2.13 18.67 2.94 18.22 3.77 17.73 4.57 17.26 5.36 16.76 6.14 16.24 6.9 15.71 7.66 15.16 8.39 14.6 9.11 14.03 9.82 13.43 10.53 12.83 11.21 12.21 11.87 11.57 12.52 10.92 13.16 10.25 13.78 9.57 14.39 8.88 14.96 8.17 15.55 7.46 16.11 6.72 16.66 5.96 17.17 5.23 17.7 4.45 18.19 3.66 18.67 2.88 19.15 2.06 19.6 1.25 20.03 0.42 20.47 0 0zm-360.89 370.18l0 -17.36 0 0 19.2 -0.41 18.77 -1.23 18.32 -2.02 17.87 -2.82 17.41 -3.59 16.92 -4.34 16.44 -5.1 15.94 -5.82 15.43 -6.53 14.89 -7.24 14.37 -7.94 13.83 -8.61 13.27 -9.28 12.7 -9.94 12.13 -10.57 11.54 -11.21 10.94 -11.83 10.33 -12.43 9.7 -13.03 9.07 -13.62 8.42 -14.21 7.77 -14.76 7.08 -15.32 6.4 -15.86 5.69 -16.39 5 -16.92 4.25 -17.42 3.52 -17.94 2.76 -18.41 1.98 -18.88 1.21 -19.35 0.4 -19.8 17.34 0 -0.42 20.52 -1.25 20.07 -2.06 19.64 -2.88 19.17 -3.66 18.7 -4.45 18.22 -5.22 17.7 -5.97 17.19 -6.72 16.66 -7.46 16.12 -8.17 15.54 -8.88 14.97 -9.57 14.38 -10.26 13.77 -10.91 13.15 -11.58 12.51 -12.2 11.85 -12.83 11.19 -13.44 10.5 -14.03 9.82 -14.59 9.09 -15.17 8.38 -15.71 7.62 -16.23 6.89 -16.76 6.12 -17.26 5.34 -17.74 4.56 -18.21 3.75 -18.67 2.94 -19.1 2.12 -19.55 1.27 -19.94 0.43 0 0zm-360.88 -370.18l17.34 0 0 0 0.4 19.81 1.2 19.34 1.97 18.89 2.75 18.41 3.49 17.93 4.24 17.43 4.96 16.92 5.67 16.39 6.38 15.86 7.06 15.33 7.73 14.75 8.4 14.21 9.03 13.62 9.68 13.03 10.3 12.43 10.92 11.83 11.51 11.21 12.11 10.57 12.7 9.93 13.26 9.29 13.82 8.6 14.36 7.94 14.91 7.23 15.43 6.54 15.96 5.82 16.46 5.1 16.97 4.34 17.44 3.59 17.93 2.82 18.37 2.02 18.85 1.23 19.28 0.41 0 17.36 -20.02 -0.43 -19.61 -1.27 -19.17 -2.12 -18.71 -2.94 -18.26 -3.75 -17.77 -4.56 -17.28 -5.34 -16.78 -6.12 -16.25 -6.88 -15.73 -7.63 -15.16 -8.38 -14.6 -9.1 -14.02 -9.81 -13.42 -10.51 -12.81 -11.19 -12.19 -11.85 -11.54 -12.51 -10.9 -13.15 -10.22 -13.77 -9.55 -14.38 -8.84 -14.97 -8.15 -15.55 -7.42 -16.11 -6.7 -16.66 -5.95 -17.19 -5.18 -17.7 -4.44 -18.21 -3.65 -18.71 -2.85 -19.17 -2.05 -19.63 -1.24 -20.08 -0.42 -20.51 0 0zm360.88 -370.22l0 17.36 0 0 -19.28 0.41 -18.84 1.24 -18.38 2.03 -17.92 2.82 -17.45 3.61 -16.96 4.35 -16.46 5.1 -15.96 5.84 -15.43 6.56 -14.92 7.26 -14.36 7.95 -13.82 8.63 -13.26 9.29 -12.69 9.96 -12.11 10.59 -11.52 11.23 -10.91 11.83 -10.31 12.46 -9.68 13.04 -9.03 13.63 -8.4 14.2 -7.73 14.76 -7.06 15.32 -6.38 15.86 -5.67 16.38 -4.96 16.91 -4.24 17.41 -3.5 17.89 -2.74 18.39 -1.97 18.85 -1.2 19.31 -0.4 19.75 -17.34 0 0.42 -20.47 1.24 -20.03 2.05 -19.59 2.86 -19.15 3.64 -18.67 4.44 -18.19 5.18 -17.69 5.95 -17.18 6.7 -16.66 7.42 -16.1 8.15 -15.56 8.84 -14.96 9.55 -14.39 10.22 -13.78 10.89 -13.16 11.55 -12.53 12.18 -11.87 12.81 -11.21 13.43 -10.52 14.02 -9.83 14.6 -9.11 15.16 -8.39 15.72 -7.66 16.25 -6.9 16.78 -6.14 17.28 -5.36 17.78 -4.57 18.25 -3.77 18.72 -2.94 19.16 -2.13 19.62 -1.28 20.02 -0.43 0 0z"/>
    </g>
    <g>
     <path class="fil8" d="M11883.47 13157.44l81.43 0c0,97.56 -69.11,161.88 -172.1,161.88 -103.35,0 -171.96,-64.32 -171.96,-161.88l81.87 0c0,70.45 35.63,117.97 90.09,117.97 54.13,0 90.67,-47.52 90.67,-117.97zm74.01 952.43l0 -478.23 -336.64 478.23 -122.57 0 0 -709.15 131.06 0 0 486.85 335.57 -486.85 123.36 0 0 709.15 -130.78 0z"/>
     <path id="_1_9" class="fil8" d="M11964.9 13166.12l-81.43 0 0 -17.36 81.43 0 8.67 8.68 -8.67 8.68zm0 -17.36l8.67 0 0 8.68 -8.67 -8.68zm-172.1 179.24l0 -17.36 0 0 9.21 -0.18 9 -0.54 8.78 -0.89 8.55 -1.22 8.33 -1.57 8.09 -1.9 7.84 -2.23 7.61 -2.53 7.33 -2.84 7.1 -3.16 6.83 -3.45 6.56 -3.74 6.3 -4.02 6.02 -4.31 5.74 -4.58 5.45 -4.84 5.17 -5.13 4.89 -5.37 4.57 -5.63 4.29 -5.9 3.97 -6.14 3.67 -6.37 3.34 -6.63 3.03 -6.87 2.7 -7.1 2.35 -7.34 2.02 -7.57 1.67 -7.79 1.31 -8.01 0.95 -8.24 0.57 -8.45 0.19 -8.66 17.34 0 -0.21 9.44 -0.63 9.25 -1.03 9.04 -1.45 8.85 -1.85 8.63 -2.24 8.41 -2.63 8.18 -3.02 7.94 -3.39 7.71 -3.76 7.45 -4.13 7.19 -4.49 6.92 -4.83 6.64 -5.17 6.37 -5.51 6.07 -5.83 5.77 -6.15 5.46 -6.46 5.16 -6.76 4.83 -7.04 4.5 -7.32 4.18 -7.61 3.83 -7.86 3.5 -8.13 3.16 -8.37 2.79 -8.6 2.43 -8.85 2.08 -9.07 1.71 -9.29 1.34 -9.5 0.95 -9.7 0.58 -9.89 0.2 0 0zm-171.96 -179.24l0 17.36 8.67 -8.68 0.19 8.66 0.58 8.46 0.93 8.23 1.3 8.02 1.66 7.8 2 7.57 2.35 7.33 2.69 7.1 3.01 6.88 3.33 6.62 3.65 6.38 3.96 6.14 4.26 5.89 4.56 5.63 4.87 5.37 5.15 5.12 5.44 4.84 5.73 4.59 6 4.3 6.28 4.02 6.56 3.74 6.82 3.45 7.1 3.16 7.33 2.84 7.61 2.53 7.85 2.23 8.1 1.9 8.33 1.57 8.58 1.22 8.8 0.89 9.02 0.54 9.25 0.18 0 17.36 -9.93 -0.2 -9.72 -0.58 -9.52 -0.95 -9.3 -1.34 -9.09 -1.71 -8.86 -2.08 -8.61 -2.43 -8.37 -2.79 -8.13 -3.16 -7.86 -3.5 -7.6 -3.83 -7.32 -4.18 -7.04 -4.5 -6.74 -4.84 -6.45 -5.15 -6.14 -5.46 -5.81 -5.78 -5.49 -6.07 -5.16 -6.37 -4.82 -6.65 -4.46 -6.92 -4.11 -7.18 -3.75 -7.46 -3.37 -7.7 -3.01 -7.94 -2.61 -8.19 -2.22 -8.41 -1.84 -8.62 -1.44 -8.84 -1.03 -9.05 -0.62 -9.24 -0.21 -9.44 8.67 -8.68zm-8.67 8.68l0 -8.68 8.67 0 -8.67 8.68zm90.54 8.68l-81.87 0 0 -17.36 81.87 0 8.67 8.68 -8.67 8.68zm0 -17.36l8.67 0 0 8.68 -8.67 -8.68zm90.09 117.97l0 17.36 0 0 -5.53 -0.15 -5.42 -0.45 -5.32 -0.75 -5.21 -1.06 -5.06 -1.34 -4.94 -1.62 -4.82 -1.9 -4.66 -2.19 -4.5 -2.44 -4.37 -2.72 -4.18 -2.97 -4.03 -3.21 -3.85 -3.46 -3.67 -3.69 -3.5 -3.91 -3.31 -4.14 -3.12 -4.33 -2.94 -4.54 -2.75 -4.75 -2.55 -4.93 -2.36 -5.12 -2.16 -5.28 -1.98 -5.48 -1.76 -5.64 -1.57 -5.8 -1.37 -5.95 -1.16 -6.11 -0.95 -6.26 -0.75 -6.41 -0.54 -6.55 -0.33 -6.68 -0.1 -6.82 17.34 0 0.1 6.26 0.29 6.1 0.5 5.97 0.67 5.81 0.87 5.64 1.04 5.49 1.21 5.31 1.39 5.14 1.56 4.96 1.72 4.78 1.88 4.6 2.04 4.42 2.17 4.21 2.33 4.01 2.48 3.82 2.6 3.63 2.75 3.42 2.86 3.21 3.01 3.01 3.11 2.8 3.25 2.59 3.36 2.39 3.47 2.16 3.62 1.96 3.72 1.75 3.82 1.52 3.98 1.3 4.08 1.08 4.19 0.84 4.32 0.61 4.46 0.37 4.57 0.13 0 0zm90.67 -117.97l0 17.36 8.67 -8.68 -0.11 6.82 -0.33 6.69 -0.55 6.56 -0.77 6.41 -0.97 6.26 -1.19 6.13 -1.4 5.96 -1.6 5.79 -1.8 5.64 -2 5.48 -2.2 5.29 -2.41 5.13 -2.59 4.92 -2.78 4.74 -2.97 4.54 -3.17 4.34 -3.34 4.12 -3.52 3.91 -3.71 3.68 -3.87 3.46 -4.05 3.2 -4.21 2.97 -4.38 2.71 -4.52 2.44 -4.67 2.19 -4.82 1.91 -4.94 1.61 -5.06 1.34 -5.21 1.06 -5.29 0.75 -5.41 0.45 -5.5 0.15 0 -17.36 4.54 -0.13 4.43 -0.37 4.31 -0.61 4.19 -0.84 4.08 -1.08 3.98 -1.31 3.84 -1.51 3.73 -1.75 3.64 -1.96 3.5 -2.17 3.39 -2.39 3.27 -2.6 3.15 -2.8 3.03 -3.02 2.9 -3.21 2.78 -3.44 2.65 -3.62 2.49 -3.82 2.38 -4.02 2.21 -4.22 2.07 -4.41 1.9 -4.59 1.76 -4.78 1.58 -4.96 1.42 -5.15 1.24 -5.3 1.07 -5.47 0.87 -5.64 0.69 -5.81 0.51 -5.96 0.29 -6.09 0.11 -6.26 8.67 -8.68zm-8.67 8.68l0 -8.68 8.67 0 -8.67 8.68zm91.35 474.2l0 478.23 -17.34 0 0 -478.23 1.58 -5 15.76 5zm-15.76 -5l15.76 -22.39 0 27.39 -15.76 -5zm-336.64 478.23l336.64 -478.23 14.18 10 -336.64 478.23 -7.09 3.68 -7.09 -13.68zm14.18 10l-2.59 3.68 -4.5 0 7.09 -3.68zm-129.66 -13.68l122.57 0 0 17.36 -122.57 0 -8.67 -8.68 8.67 -8.68zm0 17.36l-8.67 0 0 -8.68 8.67 8.68zm8.67 -717.83l0 709.15 -17.34 0 0 -709.15 8.67 -8.68 8.67 8.68zm-17.34 0l0 -8.68 8.67 0 -8.67 8.68zm139.73 8.68l-131.06 0 0 -17.36 131.06 0 8.67 8.68 -8.67 8.68zm0 -17.36l8.67 0 0 8.68 -8.67 -8.68zm-8.67 495.53l0 -486.85 17.34 0 0 486.85 -1.53 4.93 -15.81 -4.93zm15.81 4.93l-15.81 22.94 0 -27.87 15.81 4.93zm335.57 -486.85l-335.57 486.85 -14.28 -9.86 335.57 -486.85 7.14 -3.75 7.14 13.61zm-14.28 -9.86l2.58 -3.75 4.56 0 -7.14 3.75zm130.5 13.61l-123.36 0 0 -17.36 123.36 0 8.67 8.68 -8.67 8.68zm0 -17.36l8.67 0 0 8.68 -8.67 -8.68zm-8.67 717.83l0 -709.15 17.34 0 0 709.15 -8.67 8.68 -8.67 -8.68zm17.34 0l0 8.68 -8.67 0 8.67 -8.68zm-139.45 -8.68l130.78 0 0 17.36 -130.78 0 -8.67 -8.68 8.67 -8.68zm0 17.36l-8.67 0 0 -8.68 8.67 8.68z"/>
    </g>
    <g>
     <path class="fil6" d="M12236.69 13978.99c45.98,28.77 132.16,41.68 188.47,41.68 112.88,0 187.96,-47.1 187.96,-118.11 0,-84.19 -66.15,-140.33 -164.85,-140.33l-96.52 0 0 -95.57 55.81 0c95.78,0 172.26,-46.14 172.26,-102.97 0,-44.46 -61.83,-74.2 -157.45,-74.2 -51.36,0 -127.24,14.31 -169.97,42.1l0 -119.48c44.43,-11.39 126.18,-18.9 172.76,-18.9 170.98,0 286.05,68.38 286.05,170.48 0,65.15 -73.72,121.72 -180.42,146.32 132.48,23.75 230.2,100.59 230.2,192.55 0,128.53 -135.07,213.69 -335.83,213.69 -56.31,0 -134.03,-6.38 -188.47,-18.89l0 -118.37z"/>
     <path id="_1_10" class="fil7" d="M12425.16 14011.99l0 17.36 0 0 -5.48 -0.04 -5.64 -0.11 -5.8 -0.2 -5.92 -0.27 -6.04 -0.36 -6.13 -0.42 -6.26 -0.51 -6.33 -0.6 -6.39 -0.67 -6.47 -0.75 -6.5 -0.85 -6.55 -0.91 -6.57 -1.01 -6.57 -1.08 -6.59 -1.17 -6.56 -1.27 -6.54 -1.34 -6.5 -1.44 -6.45 -1.52 -6.38 -1.61 -6.3 -1.7 -6.23 -1.79 -6.12 -1.89 -6.02 -1.98 -5.89 -2.09 -5.75 -2.16 -5.62 -2.28 -5.45 -2.38 -5.29 -2.48 -5.1 -2.6 -4.91 -2.7 -4.72 -2.82 9.2 -14.72 4.14 2.48 4.39 2.42 4.6 2.34 4.83 2.26 5.03 2.2 5.2 2.1 5.39 2.04 5.55 1.95 5.68 1.88 5.82 1.79 5.91 1.71 6.04 1.62 6.12 1.55 6.19 1.46 6.26 1.38 6.3 1.3 6.34 1.21 6.35 1.13 6.37 1.06 6.35 0.97 6.35 0.89 6.32 0.81 6.25 0.73 6.21 0.65 6.13 0.58 6.04 0.49 5.95 0.42 5.84 0.34 5.7 0.27 5.56 0.18 5.42 0.11 5.24 0.04 0 0zm179.29 -109.43l17.34 0 0 0 -0.24 7.17 -0.71 7.03 -1.18 6.89 -1.64 6.72 -2.1 6.56 -2.53 6.39 -2.98 6.19 -3.39 5.99 -3.81 5.79 -4.19 5.57 -4.59 5.36 -4.97 5.13 -5.32 4.91 -5.68 4.68 -6.03 4.45 -6.35 4.2 -6.68 3.98 -7 3.75 -7.31 3.49 -7.6 3.26 -7.91 3.02 -8.19 2.76 -8.47 2.52 -8.74 2.27 -9.01 2.01 -9.27 1.76 -9.53 1.49 -9.76 1.24 -10.03 0.96 -10.25 0.69 -10.47 0.42 -10.7 0.14 0 -17.36 10.24 -0.14 10.01 -0.4 9.77 -0.65 9.51 -0.92 9.26 -1.16 8.99 -1.41 8.73 -1.66 8.45 -1.89 8.16 -2.11 7.87 -2.34 7.57 -2.56 7.27 -2.78 6.96 -2.98 6.63 -3.17 6.3 -3.37 5.98 -3.56 5.65 -3.74 5.29 -3.91 4.96 -4.08 4.6 -4.23 4.25 -4.41 3.89 -4.54 3.55 -4.71 3.19 -4.83 2.81 -4.97 2.46 -5.13 2.09 -5.25 1.72 -5.42 1.36 -5.56 0.98 -5.69 0.59 -5.85 0.2 -6.01 0 0zm-156.18 -131.65l0 -17.36 0 0 9.47 0.17 9.28 0.5 9.08 0.84 8.88 1.17 8.67 1.48 8.47 1.81 8.23 2.12 8.01 2.43 7.78 2.74 7.53 3.04 7.28 3.34 7.02 3.63 6.75 3.92 6.49 4.21 6.2 4.49 5.91 4.76 5.62 5.05 5.3 5.3 4.99 5.55 4.66 5.81 4.34 6.05 3.99 6.31 3.64 6.52 3.28 6.74 2.92 6.96 2.55 7.18 2.17 7.36 1.79 7.56 1.4 7.73 1.01 7.91 0.61 8.09 0.2 8.24 -17.34 0 -0.18 -7.38 -0.55 -7.19 -0.89 -7.03 -1.24 -6.83 -1.57 -6.64 -1.91 -6.46 -2.21 -6.26 -2.56 -6.06 -2.86 -5.88 -3.16 -5.68 -3.47 -5.47 -3.78 -5.27 -4.06 -5.07 -4.35 -4.85 -4.64 -4.64 -4.92 -4.41 -5.21 -4.2 -5.48 -3.97 -5.75 -3.73 -6.03 -3.5 -6.28 -3.25 -6.54 -3 -6.79 -2.74 -7.04 -2.48 -7.29 -2.21 -7.55 -1.94 -7.75 -1.67 -7.99 -1.36 -8.22 -1.07 -8.42 -0.78 -8.64 -0.48 -8.85 -0.15 0 0zm-96.52 -17.36l96.52 0 0 17.36 -96.52 0 -8.67 -8.68 8.67 -8.68zm0 17.36l-8.67 0 0 -8.68 8.67 8.68zm8.67 -104.25l0 95.57 -17.34 0 0 -95.57 8.67 -8.68 8.67 8.68zm-17.34 0l0 -8.68 8.67 0 -8.67 8.68zm64.48 8.68l-55.81 0 0 -17.36 55.81 0 0 0 0 17.36zm163.59 -111.65l17.34 0 0 0 -0.25 6.02 -0.75 5.95 -1.24 5.83 -1.69 5.73 -2.15 5.61 -2.58 5.46 -2.99 5.31 -3.38 5.15 -3.76 4.99 -4.11 4.83 -4.47 4.68 -4.79 4.48 -5.12 4.32 -5.42 4.14 -5.71 3.96 -6.02 3.79 -6.28 3.59 -6.54 3.38 -6.8 3.2 -7.04 3 -7.27 2.79 -7.5 2.58 -7.71 2.36 -7.92 2.14 -8.1 1.91 -8.3 1.67 -8.46 1.44 -8.64 1.19 -8.78 0.92 -8.92 0.68 -9.06 0.42 -9.18 0.13 0 -17.36 8.66 -0.13 8.54 -0.38 8.4 -0.64 8.26 -0.88 8.1 -1.11 7.92 -1.34 7.76 -1.57 7.56 -1.79 7.36 -1.98 7.15 -2.2 6.94 -2.38 6.69 -2.57 6.46 -2.74 6.2 -2.92 5.94 -3.08 5.66 -3.23 5.36 -3.37 5.07 -3.52 4.78 -3.64 4.44 -3.76 4.13 -3.86 3.79 -3.96 3.45 -4.05 3.1 -4.13 2.76 -4.19 2.39 -4.25 2.04 -4.32 1.67 -4.35 1.31 -4.41 0.94 -4.47 0.57 -4.49 0.19 -4.58 0 0zm-148.78 -65.52l0 -17.36 0 0 9.03 0.09 8.84 0.26 8.64 0.44 8.43 0.6 8.21 0.78 8 0.94 7.78 1.1 7.55 1.27 7.33 1.42 7.09 1.59 6.85 1.74 6.61 1.9 6.37 2.06 6.11 2.2 5.85 2.36 5.6 2.51 5.34 2.67 5.05 2.83 4.8 2.97 4.51 3.14 4.22 3.31 3.92 3.46 3.61 3.63 3.31 3.81 2.96 3.97 2.61 4.12 2.25 4.29 1.87 4.46 1.47 4.58 1.05 4.69 0.65 4.81 0.21 4.88 -17.34 0 -0.15 -3.36 -0.43 -3.27 -0.73 -3.19 -0.99 -3.12 -1.29 -3.06 -1.59 -3.01 -1.87 -2.98 -2.18 -2.91 -2.49 -2.87 -2.81 -2.81 -3.12 -2.76 -3.44 -2.69 -3.73 -2.6 -4.06 -2.53 -4.37 -2.43 -4.66 -2.33 -4.96 -2.23 -5.25 -2.12 -5.53 -2 -5.81 -1.88 -6.09 -1.74 -6.35 -1.62 -6.61 -1.47 -6.87 -1.34 -7.11 -1.19 -7.36 -1.04 -7.6 -0.9 -7.83 -0.74 -8.05 -0.58 -8.26 -0.42 -8.5 -0.24 -8.69 -0.09 0 0zm-178.64 33.42l17.34 0 -13.39 -7.28 4.35 -2.73 4.53 -2.62 4.67 -2.53 4.85 -2.43 4.97 -2.35 5.1 -2.24 5.22 -2.17 5.33 -2.07 5.44 -1.99 5.52 -1.9 5.62 -1.82 5.69 -1.73 5.73 -1.64 5.8 -1.56 5.84 -1.48 5.88 -1.39 5.88 -1.31 5.91 -1.22 5.9 -1.14 5.91 -1.06 5.89 -0.97 5.85 -0.89 5.81 -0.81 5.76 -0.72 5.71 -0.63 5.64 -0.56 5.58 -0.47 5.47 -0.38 5.38 -0.3 5.27 -0.21 5.15 -0.14 5.04 -0.04 0 17.36 -4.74 0.04 -4.87 0.12 -5.01 0.21 -5.14 0.28 -5.23 0.36 -5.32 0.45 -5.4 0.54 -5.49 0.61 -5.54 0.7 -5.59 0.77 -5.63 0.85 -5.65 0.93 -5.67 1.02 -5.68 1.1 -5.67 1.18 -5.66 1.25 -5.62 1.33 -5.58 1.42 -5.54 1.48 -5.47 1.58 -5.41 1.63 -5.3 1.72 -5.22 1.8 -5.12 1.87 -4.99 1.95 -4.88 2.01 -4.72 2.08 -4.57 2.15 -4.41 2.23 -4.23 2.29 -4.05 2.34 -3.85 2.41 -13.39 -7.28zm13.39 7.28l-13.39 8.71 0 -15.99 13.39 7.28zm3.95 -126.76l0 119.48 -17.34 0 0 -119.48 6.52 -8.41 10.82 8.41zm-17.34 0l0 -6.74 6.52 -1.67 -6.52 8.41zm181.43 -27.58l0 17.36 0 0 -4.38 0.02 -4.59 0.07 -4.78 0.11 -4.93 0.13 -5.09 0.2 -5.26 0.23 -5.37 0.27 -5.49 0.3 -5.59 0.35 -5.67 0.39 -5.75 0.41 -5.82 0.47 -5.85 0.49 -5.89 0.53 -5.91 0.57 -5.93 0.59 -5.91 0.63 -5.88 0.66 -5.85 0.7 -5.81 0.72 -5.75 0.76 -5.68 0.78 -5.57 0.81 -5.47 0.84 -5.36 0.87 -5.23 0.9 -5.09 0.91 -4.92 0.95 -4.75 0.96 -4.56 0.98 -4.35 1 -4.13 1.03 -4.3 -16.82 4.41 -1.09 4.61 -1.06 4.78 -1.04 4.95 -1 5.1 -0.97 5.25 -0.95 5.39 -0.92 5.5 -0.89 5.61 -0.86 5.71 -0.83 5.78 -0.8 5.87 -0.78 5.91 -0.74 5.95 -0.7 6 -0.68 6.01 -0.63 6.01 -0.61 6.01 -0.57 5.99 -0.55 5.95 -0.49 5.9 -0.47 5.85 -0.43 5.77 -0.39 5.69 -0.35 5.59 -0.32 5.49 -0.27 5.34 -0.23 5.23 -0.2 5.07 -0.15 4.9 -0.11 4.73 -0.07 4.56 -0.02 0 0zm294.72 179.16l-17.34 0 0 0 -0.32 -8.85 -0.92 -8.65 -1.55 -8.43 -2.13 -8.23 -2.71 -8.01 -3.31 -7.81 -3.87 -7.61 -4.44 -7.4 -5.01 -7.18 -5.58 -6.98 -6.12 -6.75 -6.68 -6.53 -7.21 -6.29 -7.74 -6.03 -8.29 -5.79 -8.79 -5.53 -9.31 -5.26 -9.8 -4.96 -10.29 -4.69 -10.77 -4.38 -11.24 -4.08 -11.69 -3.75 -12.15 -3.44 -12.57 -3.11 -13 -2.77 -13.41 -2.43 -13.81 -2.06 -14.21 -1.71 -14.57 -1.35 -14.94 -0.96 -15.31 -0.58 -15.64 -0.2 0 -17.36 16.08 0.2 15.75 0.6 15.42 1 15.05 1.39 14.69 1.77 14.31 2.14 13.93 2.51 13.54 2.89 13.13 3.25 12.71 3.6 12.29 3.95 11.86 4.3 11.39 4.64 10.95 4.97 10.48 5.32 9.99 5.64 9.51 5.97 8.99 6.29 8.48 6.61 7.95 6.93 7.4 7.23 6.84 7.55 6.26 7.84 5.67 8.14 5.06 8.42 4.43 8.69 3.79 8.97 3.13 9.23 2.45 9.45 1.77 9.69 1.06 9.89 0.36 10.09 0 0zm-187.56 137.78l-3.06 17.08 -0.42 -17 9.73 -2.35 9.51 -2.53 9.3 -2.71 9.09 -2.87 8.85 -3.04 8.63 -3.2 8.38 -3.35 8.13 -3.5 7.89 -3.64 7.6 -3.78 7.33 -3.92 7.06 -4.04 6.77 -4.17 6.46 -4.29 6.18 -4.39 5.85 -4.5 5.54 -4.6 5.23 -4.7 4.88 -4.77 4.55 -4.86 4.2 -4.94 3.87 -4.99 3.49 -5.06 3.15 -5.12 2.79 -5.16 2.43 -5.22 2.07 -5.25 1.69 -5.3 1.33 -5.34 0.96 -5.38 0.57 -5.42 0.19 -5.47 17.34 0 -0.23 6.69 -0.71 6.64 -1.16 6.56 -1.61 6.46 -2.03 6.38 -2.47 6.29 -2.87 6.16 -3.27 6.06 -3.65 5.92 -4.03 5.82 -4.39 5.69 -4.74 5.56 -5.09 5.44 -5.42 5.29 -5.73 5.16 -6.06 5.04 -6.37 4.88 -6.66 4.75 -6.96 4.61 -7.23 4.45 -7.52 4.32 -7.79 4.16 -8.06 4 -8.31 3.84 -8.55 3.68 -8.8 3.51 -9.03 3.36 -9.25 3.16 -9.47 3.01 -9.7 2.81 -9.89 2.63 -10.09 2.45 -0.42 -17zm-3.06 17.08l-41.72 -7.48 41.3 -9.52 0.42 17zm240.4 184.01l-17.34 0 0 0 -0.26 -8.01 -0.79 -7.9 -1.3 -7.82 -1.81 -7.72 -2.31 -7.64 -2.79 -7.53 -3.27 -7.43 -3.74 -7.32 -4.21 -7.21 -4.67 -7.07 -5.11 -6.96 -5.56 -6.81 -5.99 -6.68 -6.4 -6.52 -6.82 -6.34 -7.22 -6.18 -7.61 -6.01 -7.98 -5.8 -8.36 -5.62 -8.71 -5.42 -9.06 -5.19 -9.39 -4.97 -9.72 -4.75 -10.02 -4.51 -10.32 -4.26 -10.61 -4 -10.89 -3.75 -11.14 -3.49 -11.41 -3.2 -11.63 -2.92 -11.87 -2.64 -12.09 -2.34 3.06 -17.08 12.55 2.42 12.33 2.74 12.11 3.04 11.87 3.34 11.62 3.63 11.37 3.91 11.09 4.2 10.82 4.46 10.52 4.73 10.22 4.99 9.89 5.25 9.58 5.49 9.23 5.74 8.88 5.96 8.52 6.2 8.15 6.43 7.76 6.64 7.36 6.86 6.96 7.08 6.51 7.26 6.1 7.47 5.63 7.66 5.17 7.85 4.69 8.03 4.2 8.2 3.69 8.37 3.15 8.53 2.61 8.66 2.07 8.82 1.48 8.92 0.91 9.06 0.3 9.15 0 0zm-344.5 222.37l0 -17.36 0 0 18.4 -0.25 17.99 -0.73 17.56 -1.2 17.15 -1.68 16.7 -2.13 16.24 -2.59 15.78 -3.03 15.3 -3.45 14.79 -3.9 14.29 -4.29 13.77 -4.72 13.23 -5.1 12.69 -5.5 12.13 -5.88 11.56 -6.24 10.98 -6.61 10.38 -6.95 9.78 -7.29 9.17 -7.62 8.54 -7.94 7.91 -8.26 7.26 -8.55 6.61 -8.84 5.97 -9.15 5.29 -9.43 4.62 -9.69 3.94 -9.99 3.25 -10.26 2.56 -10.52 1.83 -10.8 1.12 -11.08 0.37 -11.34 17.34 0 -0.41 12.5 -1.24 12.24 -2.03 11.98 -2.84 11.7 -3.61 11.4 -4.38 11.09 -5.12 10.77 -5.87 10.43 -6.57 10.09 -7.27 9.74 -7.96 9.35 -8.61 9 -9.26 8.6 -9.89 8.22 -10.5 7.83 -11.1 7.43 -11.68 7.03 -12.24 6.62 -12.81 6.2 -13.35 5.78 -13.87 5.36 -14.39 4.92 -14.89 4.49 -15.39 4.04 -15.86 3.59 -16.32 3.13 -16.78 2.67 -17.22 2.21 -17.65 1.72 -18.06 1.24 -18.47 0.75 -18.86 0.25 0 0zm-197.14 -27.57l17.34 0 -6.73 -8.46 5.07 1.13 5.21 1.1 5.32 1.07 5.44 1.02 5.56 1 5.66 0.97 5.74 0.93 5.84 0.89 5.89 0.86 5.97 0.81 6.03 0.79 6.07 0.74 6.12 0.72 6.15 0.68 6.16 0.64 6.18 0.61 6.19 0.56 6.19 0.54 6.18 0.5 6.16 0.45 6.14 0.43 6.08 0.39 6.06 0.34 6 0.32 5.94 0.28 5.86 0.24 5.81 0.19 5.71 0.17 5.62 0.13 5.5 0.1 5.4 0.05 5.28 0.02 0 17.36 -5.4 -0.02 -5.52 -0.05 -5.62 -0.1 -5.72 -0.13 -5.81 -0.17 -5.89 -0.21 -5.98 -0.24 -6.04 -0.28 -6.1 -0.32 -6.14 -0.36 -6.2 -0.39 -6.22 -0.43 -6.26 -0.47 -6.28 -0.5 -6.29 -0.54 -6.29 -0.58 -6.28 -0.61 -6.28 -0.66 -6.25 -0.7 -6.22 -0.72 -6.19 -0.76 -6.15 -0.81 -6.09 -0.83 -6.03 -0.88 -5.96 -0.91 -5.9 -0.95 -5.8 -0.99 -5.7 -1.02 -5.62 -1.06 -5.52 -1.11 -5.39 -1.14 -5.27 -1.17 -6.73 -8.46zm6.73 8.46l-6.73 -1.55 0 -6.91 6.73 8.46zm10.61 -126.83l0 118.37 -17.34 0 0 -118.37 13.27 -7.36 4.07 7.36zm-17.34 0l0 -15.66 13.27 8.3 -13.27 7.36z"/>
    </g>
    <g>
     <path class="fil6" d="M13305.69 13877.98l-127.53 -386.96 -127.84 386.96 255.37 0zm-199.23 -477.26l143.9 0 280.18 709.15 -147.56 0 -48.6 -148.12 -311.66 0 -49.03 148.12 -147.75 0 280.52 -709.15z"/>
     <path id="_1_11" class="fil7" d="M13186.39 13488.3l127.53 386.96 -16.46 5.44 -127.53 -386.96 0 -5.45 16.46 0.01zm-16.46 -0.01l8.24 -24.94 8.22 24.95 -16.46 -0.01zm-127.84 386.96l127.84 -386.96 16.46 5.46 -127.84 386.96 -8.23 5.95 -8.23 -11.41zm8.23 11.41l-12 0 3.77 -11.41 8.23 11.41zm255.37 0l-255.37 0 0 -17.36 255.37 0 8.23 5.96 -8.23 11.4zm8.23 -11.4l3.76 11.4 -11.99 0 8.23 -11.4zm-63.56 -465.86l-143.9 0 0 -17.36 143.9 0 8.06 5.49 -8.06 11.87zm0 -17.36l5.89 0 2.17 5.49 -8.06 -5.49zm272.12 721.02l-280.18 -709.15 16.12 -6.38 280.18 709.15 -8.06 11.87 -8.06 -5.49zm16.12 -6.38l4.69 11.87 -12.75 0 8.06 -11.87zm-155.62 -5.49l147.56 0 0 17.36 -147.56 0 -8.24 -5.97 8.24 -11.39zm0 17.36l-6.28 0 -1.96 -5.97 8.24 5.97zm-40.36 -159.51l48.6 148.12 -16.48 5.42 -48.6 -148.12 8.24 -11.39 8.24 5.97zm-8.24 -5.97l6.28 0 1.96 5.97 -8.24 -5.97zm-311.66 0l311.66 0 0 17.36 -311.66 0 -8.23 -11.41 8.23 -5.95zm-8.23 5.95l1.97 -5.95 6.26 0 -8.23 5.95zm-49.03 148.12l49.03 -148.12 16.46 5.46 -49.03 148.12 -8.23 5.95 -8.23 -11.41zm16.46 5.46l-1.97 5.95 -6.26 0 8.23 -5.95zm-155.98 -11.41l147.75 0 0 17.36 -147.75 0 -8.06 -11.88 8.06 -5.48zm0 17.36l-12.76 0 4.7 -11.88 8.06 11.88zm288.58 -714.63l-280.52 709.15 -16.12 -6.4 280.52 -709.15 8.06 -5.48 8.06 11.88zm-16.12 -6.4l2.17 -5.48 5.89 0 -8.06 5.48z"/>
    </g>
    <g>
     <path class="fil6" d="M14067.04 13400.72l172.88 0 -304.56 346.67 332.61 362.48 -192.3 0 -271.11 -361.8 262.48 -347.35zm-421.44 0l139.36 0 0 709.15 -139.36 0 0 -709.15z"/>
     <path id="_1_12" class="fil7" d="M14239.92 13409.4l-172.88 0 0 -17.36 172.88 0 6.51 14.41 -6.51 2.95zm0 -17.36l19.17 0 -12.66 14.41 -6.51 -14.41zm-311.07 349.62l304.56 -346.67 13.02 11.46 -304.56 346.67 -12.9 0.14 -0.12 -11.6zm0.12 11.6l-5.27 -5.74 5.15 -5.86 0.12 11.6zm332.61 362.48l-332.61 -362.48 12.78 -11.74 332.61 362.48 -6.39 14.55 -6.39 -2.81zm12.78 -11.74l13.35 14.55 -19.74 0 6.39 -14.55zm-198.69 -2.81l192.3 0 0 17.36 -192.3 0 -6.94 -3.47 6.94 -13.89zm0 17.36l-4.34 0 -2.6 -3.47 6.94 3.47zm-264.17 -375.69l271.11 361.8 -13.88 10.42 -271.11 -361.8 0.03 -10.45 13.85 0.03zm-13.88 10.42l-3.92 -5.23 3.95 -5.22 -0.03 10.45zm276.33 -347.32l-262.48 347.35 -13.82 -10.48 262.48 -347.35 6.91 -3.44 6.91 13.92zm-13.82 -10.48l2.6 -3.44 4.31 0 -6.91 3.44zm-275.17 13.92l-139.36 0 0 -17.36 139.36 0 8.67 8.68 -8.67 8.68zm0 -17.36l8.67 0 0 8.68 -8.67 -8.68zm-8.67 717.83l0 -709.15 17.34 0 0 709.15 -8.67 8.68 -8.67 -8.68zm17.34 0l0 8.68 -8.67 0 8.67 -8.68zm-148.03 -8.68l139.36 0 0 17.36 -139.36 0 -8.67 -8.68 8.67 -8.68zm0 17.36l-8.67 0 0 -8.68 8.67 8.68zm8.67 -717.83l0 709.15 -17.34 0 0 -709.15 8.67 -8.68 8.67 8.68zm-17.34 0l0 -8.68 8.67 0 -8.67 8.68z"/>
    </g>
    <g>
     <path class="fil6" d="M14797.68 13877.98l-128.62 -386.96 -127.53 386.96 256.15 0zm-200.76 -477.26l145.25 0 278.81 709.15 -146.96 0 -48.74 -148.12 -311.64 0 -49.68 148.12 -146.66 0 279.62 -709.15z"/>
     <path id="_1_13" class="fil7" d="M14677.29 13488.28l128.62 386.96 -16.46 5.48 -128.62 -386.96 0 -5.46 16.46 -0.02zm-16.46 0.02l8.2 -24.88 8.26 24.86 -16.46 0.02zm-127.53 386.96l127.53 -386.96 16.46 5.44 -127.53 386.96 -8.23 5.96 -8.23 -11.4zm8.23 11.4l-11.99 0 3.76 -11.4 8.23 11.4zm256.15 0l-256.15 0 0 -17.36 256.15 0 8.23 5.94 -8.23 11.42zm8.23 -11.42l3.8 11.42 -12.03 0 8.23 -11.42zm-63.74 -465.84l-145.25 0 0 -17.36 145.25 0 8.07 5.5 -8.07 11.86zm0 -17.36l5.91 0 2.16 5.5 -8.07 -5.5zm270.74 721.01l-278.81 -709.15 16.14 -6.36 278.81 709.15 -8.07 11.86 -8.07 -5.5zm16.14 -6.36l4.66 11.86 -12.73 0 8.07 -11.86zm-155.03 -5.5l146.96 0 0 17.36 -146.96 0 -8.24 -5.96 8.24 -11.4zm0 17.36l-6.28 0 -1.96 -5.96 8.24 5.96zm-40.5 -159.52l48.74 148.12 -16.48 5.44 -48.74 -148.12 8.24 -11.4 8.24 5.96zm-8.24 -5.96l6.28 0 1.96 5.96 -8.24 -5.96zm-311.64 0l311.64 0 0 17.36 -311.64 0 -8.22 -11.44 8.22 -5.92zm-8.22 5.92l1.99 -5.92 6.23 0 -8.22 5.92zm-49.68 148.12l49.68 -148.12 16.44 5.52 -49.68 148.12 -8.22 5.92 -8.22 -11.44zm16.44 5.52l-1.99 5.92 -6.23 0 8.22 -5.92zm-154.88 -11.44l146.66 0 0 17.36 -146.66 0 -8.06 -11.87 8.06 -5.49zm0 17.36l-12.74 0 4.68 -11.87 8.06 11.87zm287.68 -714.64l-279.62 709.15 -16.12 -6.38 279.62 -709.15 8.06 -5.49 8.06 11.87zm-16.12 -6.38l2.16 -5.49 5.9 0 -8.06 5.49z"/>
    </g>
    <g>
     <path class="fil6" d="M15086.67 13978.99c45.83,28.77 133.54,41.68 188.76,41.68 113.2,0 188.93,-47.1 188.93,-118.11 0,-84.19 -66.49,-140.33 -165.63,-140.33l-96.25 0 0 -95.57 56.92 0c94.67,0 172.1,-46.14 172.1,-102.97 0,-44.46 -63.85,-74.2 -157.63,-74.2 -51.96,0 -127.67,14.31 -170.23,42.1l0 -119.48c43.94,-11.39 126,-18.9 171.79,-18.9 171.63,0 286.85,68.38 286.85,170.48 0,65.15 -74.21,121.72 -180.13,146.32 131.82,23.75 229.62,100.59 229.62,192.55 0,128.53 -135.24,213.69 -336.34,213.69 -55.22,0 -133.38,-6.38 -188.76,-18.89l0 -118.37z"/>
     <path id="_1_14" class="fil7" d="M15275.43 14011.99l0 17.36 0 0 -5.39 -0.04 -5.56 -0.11 -5.73 -0.2 -5.87 -0.27 -5.99 -0.36 -6.11 -0.43 -6.23 -0.5 -6.32 -0.6 -6.4 -0.67 -6.48 -0.75 -6.51 -0.85 -6.57 -0.91 -6.6 -1.01 -6.6 -1.08 -6.62 -1.17 -6.6 -1.26 -6.57 -1.35 -6.55 -1.43 -6.5 -1.52 -6.42 -1.62 -6.36 -1.69 -6.27 -1.8 -6.17 -1.88 -6.06 -1.99 -5.93 -2.08 -5.78 -2.17 -5.64 -2.27 -5.49 -2.39 -5.31 -2.48 -5.11 -2.6 -4.92 -2.7 -4.71 -2.83 9.22 -14.7 4.13 2.47 4.38 2.42 4.61 2.34 4.83 2.26 5.05 2.19 5.24 2.11 5.42 2.03 5.57 1.96 5.72 1.87 5.87 1.8 5.97 1.7 6.08 1.63 6.16 1.54 6.24 1.46 6.31 1.39 6.35 1.29 6.38 1.22 6.4 1.13 6.4 1.06 6.38 0.97 6.37 0.89 6.33 0.81 6.26 0.73 6.22 0.65 6.12 0.58 6.01 0.5 5.93 0.41 5.79 0.34 5.65 0.27 5.49 0.18 5.34 0.11 5.15 0.04 0 0zm180.26 -109.43l17.34 0 0 0 -0.24 7.18 -0.72 7.03 -1.19 6.89 -1.66 6.72 -2.1 6.57 -2.56 6.39 -3 6.2 -3.42 5.99 -3.83 5.78 -4.23 5.58 -4.62 5.35 -5 5.14 -5.36 4.9 -5.71 4.67 -6.07 4.45 -6.38 4.21 -6.72 3.97 -7.04 3.75 -7.35 3.49 -7.64 3.25 -7.94 3.02 -8.23 2.77 -8.51 2.52 -8.78 2.26 -9.05 2.01 -9.31 1.76 -9.56 1.5 -9.81 1.23 -10.05 0.96 -10.28 0.69 -10.51 0.42 -10.73 0.14 0 -17.36 10.27 -0.14 10.05 -0.4 9.8 -0.65 9.55 -0.92 9.29 -1.17 9.04 -1.4 8.77 -1.66 8.49 -1.89 8.2 -2.12 7.91 -2.34 7.61 -2.55 7.3 -2.78 7.02 -2.99 6.67 -3.17 6.34 -3.37 6.02 -3.57 5.68 -3.73 5.33 -3.91 4.99 -4.09 4.64 -4.24 4.28 -4.4 3.92 -4.55 3.57 -4.7 3.21 -4.84 2.84 -4.97 2.48 -5.12 2.1 -5.25 1.74 -5.41 1.36 -5.56 0.99 -5.69 0.6 -5.85 0.2 -6 0 0zm-156.96 -131.65l0 -17.36 0 0 9.51 0.17 9.32 0.5 9.12 0.84 8.91 1.17 8.72 1.47 8.5 1.82 8.27 2.12 8.03 2.43 7.81 2.73 7.57 3.04 7.31 3.34 7.05 3.63 6.79 3.92 6.51 4.21 6.24 4.49 5.93 4.76 5.64 5.04 5.32 5.3 5.02 5.55 4.69 5.82 4.35 6.05 4.01 6.3 3.66 6.52 3.3 6.75 2.94 6.96 2.56 7.17 2.19 7.37 1.8 7.56 1.4 7.73 1.02 7.92 0.61 8.09 0.2 8.24 -17.34 0 -0.18 -7.38 -0.55 -7.19 -0.9 -7.02 -1.24 -6.83 -1.58 -6.64 -1.91 -6.45 -2.24 -6.27 -2.56 -6.06 -2.88 -5.87 -3.18 -5.68 -3.49 -5.48 -3.79 -5.27 -4.07 -5.06 -4.38 -4.85 -4.66 -4.64 -4.96 -4.42 -5.23 -4.2 -5.5 -3.97 -5.79 -3.73 -6.05 -3.5 -6.31 -3.25 -6.57 -3 -6.83 -2.74 -7.09 -2.49 -7.33 -2.21 -7.57 -1.94 -7.8 -1.66 -8.02 -1.37 -8.27 -1.07 -8.46 -0.78 -8.68 -0.48 -8.89 -0.15 0 0zm-96.25 -17.36l96.25 0 0 17.36 -96.25 0 -8.67 -8.68 8.67 -8.68zm0 17.36l-8.67 0 0 -8.68 8.67 8.68zm8.67 -104.25l0 95.57 -17.34 0 0 -95.57 8.67 -8.68 8.67 8.68zm-17.34 0l0 -8.68 8.67 0 -8.67 8.68zm65.59 8.68l-56.92 0 0 -17.36 56.92 0 0 0 0 17.36zm163.43 -111.65l17.34 0 0 0 -0.26 6.03 -0.75 5.94 -1.25 5.86 -1.72 5.73 -2.17 5.6 -2.61 5.47 -3.02 5.31 -3.4 5.15 -3.79 4.99 -4.14 4.82 -4.49 4.67 -4.83 4.49 -5.13 4.32 -5.45 4.13 -5.74 3.96 -6.02 3.78 -6.3 3.59 -6.56 3.39 -6.79 3.19 -7.05 3 -7.27 2.79 -7.48 2.57 -7.7 2.37 -7.89 2.13 -8.08 1.92 -8.25 1.67 -8.43 1.44 -8.57 1.19 -8.72 0.92 -8.85 0.68 -8.98 0.42 -9.08 0.13 0 -17.36 8.56 -0.13 8.44 -0.38 8.33 -0.64 8.2 -0.88 8.03 -1.11 7.89 -1.34 7.71 -1.57 7.54 -1.78 7.35 -1.99 7.14 -2.19 6.92 -2.39 6.71 -2.57 6.45 -2.74 6.21 -2.93 5.96 -3.07 5.66 -3.23 5.4 -3.38 5.1 -3.52 4.79 -3.65 4.49 -3.76 4.15 -3.85 3.81 -3.97 3.48 -4.06 3.13 -4.13 2.78 -4.19 2.42 -4.25 2.05 -4.31 1.69 -4.36 1.32 -4.41 0.95 -4.44 0.57 -4.5 0.2 -4.57 0 0zm-148.96 -65.52l0 -17.36 0 0 8.87 0.09 8.7 0.26 8.53 0.44 8.32 0.6 8.14 0.78 7.93 0.94 7.73 1.1 7.52 1.27 7.3 1.42 7.09 1.59 6.85 1.74 6.63 1.89 6.38 2.06 6.14 2.2 5.9 2.36 5.63 2.51 5.39 2.66 5.12 2.82 4.83 2.97 4.57 3.14 4.28 3.29 3.99 3.46 3.67 3.62 3.37 3.79 3.02 3.96 2.68 4.14 2.31 4.29 1.91 4.46 1.52 4.58 1.1 4.72 0.65 4.83 0.23 4.9 -17.34 0 -0.15 -3.34 -0.45 -3.25 -0.74 -3.16 -1.02 -3.12 -1.33 -3.06 -1.61 -3.01 -1.92 -2.96 -2.24 -2.92 -2.55 -2.89 -2.87 -2.82 -3.19 -2.76 -3.5 -2.71 -3.81 -2.6 -4.13 -2.53 -4.42 -2.44 -4.73 -2.34 -5.01 -2.23 -5.3 -2.12 -5.58 -2 -5.84 -1.88 -6.11 -1.75 -6.35 -1.62 -6.61 -1.47 -6.86 -1.34 -7.08 -1.19 -7.31 -1.04 -7.53 -0.9 -7.74 -0.74 -7.96 -0.58 -8.15 -0.42 -8.34 -0.24 -8.53 -0.09 0 0zm-178.9 33.42l17.34 0 -13.41 -7.27 4.35 -2.73 4.5 -2.62 4.67 -2.53 4.81 -2.44 4.97 -2.35 5.09 -2.24 5.21 -2.16 5.33 -2.08 5.42 -1.99 5.52 -1.9 5.6 -1.82 5.68 -1.73 5.74 -1.64 5.79 -1.56 5.84 -1.48 5.88 -1.39 5.89 -1.31 5.91 -1.22 5.91 -1.14 5.92 -1.06 5.9 -0.97 5.87 -0.89 5.83 -0.81 5.8 -0.72 5.73 -0.63 5.66 -0.56 5.61 -0.47 5.52 -0.38 5.42 -0.3 5.3 -0.21 5.21 -0.14 5.09 -0.04 0 17.36 -4.79 0.04 -4.93 0.12 -5.06 0.21 -5.18 0.28 -5.26 0.36 -5.35 0.45 -5.44 0.54 -5.51 0.61 -5.56 0.7 -5.61 0.77 -5.65 0.85 -5.66 0.93 -5.68 1.02 -5.69 1.1 -5.67 1.18 -5.67 1.25 -5.62 1.33 -5.58 1.42 -5.53 1.48 -5.48 1.58 -5.38 1.63 -5.3 1.72 -5.22 1.8 -5.1 1.87 -4.99 1.94 -4.85 2.02 -4.71 2.08 -4.55 2.15 -4.39 2.22 -4.23 2.29 -4.02 2.34 -3.83 2.41 -13.41 -7.27zm13.41 7.27l-13.41 8.76 0 -16.03 13.41 7.27zm3.93 -126.75l0 119.48 -17.34 0 0 -119.48 6.5 -8.4 10.84 8.4zm-17.34 0l0 -6.72 6.5 -1.68 -6.5 8.4zm180.46 -27.58l0 17.36 0 0 -4.31 0.02 -4.51 0.07 -4.73 0.11 -4.89 0.13 -5.04 0.2 -5.2 0.23 -5.34 0.27 -5.45 0.3 -5.55 0.35 -5.65 0.39 -5.73 0.41 -5.78 0.47 -5.85 0.49 -5.86 0.53 -5.9 0.57 -5.91 0.59 -5.89 0.63 -5.87 0.66 -5.84 0.7 -5.79 0.72 -5.74 0.76 -5.65 0.78 -5.56 0.81 -5.46 0.84 -5.33 0.87 -5.2 0.9 -5.06 0.91 -4.9 0.95 -4.72 0.95 -4.51 0.99 -4.31 1 -4.09 1.02 -4.34 -16.8 4.37 -1.1 4.57 -1.06 4.75 -1.03 4.92 -1.01 5.08 -0.97 5.22 -0.95 5.36 -0.92 5.49 -0.89 5.6 -0.86 5.68 -0.83 5.77 -0.8 5.84 -0.78 5.91 -0.74 5.94 -0.7 5.99 -0.68 5.99 -0.63 5.99 -0.61 5.98 -0.57 5.98 -0.55 5.93 -0.49 5.88 -0.47 5.83 -0.43 5.73 -0.39 5.67 -0.35 5.55 -0.32 5.44 -0.27 5.3 -0.23 5.18 -0.2 5.03 -0.15 4.83 -0.11 4.67 -0.07 4.49 -0.02 0 0zm295.52 179.16l-17.34 0 0 0 -0.32 -8.85 -0.93 -8.65 -1.54 -8.43 -2.14 -8.22 -2.71 -8.02 -3.31 -7.81 -3.88 -7.6 -4.45 -7.4 -5.02 -7.19 -5.58 -6.97 -6.14 -6.76 -6.69 -6.52 -7.22 -6.29 -7.78 -6.04 -8.29 -5.79 -8.82 -5.53 -9.33 -5.25 -9.82 -4.97 -10.33 -4.68 -10.8 -4.38 -11.26 -4.08 -11.74 -3.76 -12.17 -3.44 -12.62 -3.11 -13.04 -2.77 -13.45 -2.42 -13.85 -2.07 -14.26 -1.71 -14.62 -1.35 -15 -0.96 -15.37 -0.58 -15.7 -0.2 0 -17.36 16.14 0.2 15.81 0.6 15.46 1 15.1 1.39 14.74 1.77 14.35 2.13 13.99 2.52 13.58 2.89 13.16 3.25 12.75 3.6 12.32 3.94 11.88 4.3 11.44 4.64 10.97 4.98 10.5 5.31 10.03 5.65 9.52 5.97 9.01 6.29 8.5 6.6 7.96 6.93 7.41 7.24 6.86 7.54 6.28 7.85 5.68 8.13 5.07 8.42 4.44 8.7 3.79 8.97 3.13 9.22 2.46 9.46 1.76 9.69 1.07 9.89 0.36 10.09 0 0zm-187.26 137.78l-3.08 17.08 -0.42 -17 9.65 -2.35 9.46 -2.53 9.24 -2.7 9.04 -2.88 8.82 -3.03 8.58 -3.21 8.35 -3.34 8.11 -3.5 7.86 -3.65 7.59 -3.77 7.32 -3.92 7.05 -4.05 6.77 -4.17 6.46 -4.29 6.18 -4.4 5.87 -4.49 5.54 -4.6 5.23 -4.7 4.89 -4.77 4.55 -4.86 4.23 -4.95 3.88 -4.99 3.51 -5.06 3.16 -5.12 2.8 -5.16 2.44 -5.22 2.08 -5.25 1.69 -5.3 1.34 -5.34 0.96 -5.37 0.57 -5.43 0.2 -5.46 17.34 0 -0.24 6.7 -0.71 6.63 -1.16 6.57 -1.62 6.46 -2.05 6.38 -2.48 6.29 -2.88 6.16 -3.28 6.06 -3.66 5.92 -4.05 5.82 -4.4 5.69 -4.75 5.55 -5.09 5.44 -5.43 5.29 -5.75 5.16 -6.06 5.04 -6.37 4.89 -6.66 4.74 -6.96 4.61 -7.23 4.45 -7.51 4.31 -7.78 4.16 -8.03 4.01 -8.28 3.83 -8.53 3.68 -8.75 3.52 -9 3.35 -9.22 3.17 -9.42 3 -9.64 2.82 -9.82 2.63 -10.03 2.45 -0.42 -17zm-3.08 17.08l-41.46 -7.47 41.04 -9.53 0.42 17zm239.83 184.01l-17.34 0 0 0 -0.26 -8.01 -0.79 -7.9 -1.31 -7.82 -1.81 -7.73 -2.3 -7.63 -2.79 -7.53 -3.27 -7.43 -3.74 -7.32 -4.21 -7.21 -4.67 -7.07 -5.11 -6.96 -5.56 -6.81 -5.98 -6.68 -6.4 -6.52 -6.8 -6.34 -7.22 -6.19 -7.59 -6 -7.97 -5.81 -8.34 -5.61 -8.7 -5.42 -9.03 -5.19 -9.37 -4.98 -9.69 -4.74 -9.99 -4.51 -10.28 -4.26 -10.58 -4.01 -10.84 -3.75 -11.11 -3.48 -11.35 -3.2 -11.59 -2.92 -11.81 -2.64 -12.03 -2.34 3.08 -17.08 12.49 2.42 12.27 2.74 12.05 3.04 11.83 3.34 11.59 3.64 11.32 3.91 11.06 4.19 10.78 4.46 10.49 4.73 10.19 5 9.87 5.24 9.55 5.49 9.22 5.74 8.86 5.97 8.51 6.19 8.13 6.44 7.74 6.63 7.36 6.86 6.94 7.08 6.52 7.26 6.08 7.47 5.63 7.66 5.17 7.85 4.69 8.03 4.2 8.2 3.69 8.37 3.15 8.53 2.62 8.67 2.05 8.81 1.49 8.92 0.91 9.06 0.3 9.15 0 0zm-345.01 222.37l0 -17.36 0 0 18.43 -0.25 18.02 -0.73 17.61 -1.2 17.16 -1.68 16.73 -2.13 16.28 -2.59 15.79 -3.03 15.32 -3.45 14.83 -3.9 14.3 -4.3 13.79 -4.71 13.25 -5.11 12.72 -5.49 12.15 -5.88 11.57 -6.24 10.99 -6.61 10.41 -6.96 9.78 -7.29 9.18 -7.62 8.55 -7.93 7.93 -8.27 7.28 -8.54 6.62 -8.85 5.97 -9.15 5.3 -9.42 4.62 -9.7 3.95 -9.98 3.26 -10.26 2.55 -10.52 1.84 -10.81 1.12 -11.07 0.37 -11.34 17.34 0 -0.41 12.5 -1.24 12.25 -2.04 11.97 -2.83 11.7 -3.62 11.4 -4.39 11.1 -5.14 10.76 -5.86 10.44 -6.59 10.09 -7.28 9.73 -7.96 9.36 -8.63 8.99 -9.27 8.61 -9.9 8.22 -10.52 7.83 -11.11 7.42 -11.69 7.03 -12.27 6.62 -12.83 6.2 -13.36 5.79 -13.89 5.35 -14.41 4.93 -14.92 4.48 -15.41 4.04 -15.88 3.59 -16.35 3.13 -16.8 2.67 -17.25 2.21 -17.68 1.72 -18.09 1.24 -18.5 0.75 -18.89 0.25 0 0zm-197.43 -27.57l17.34 0 -6.76 -8.47 5.16 1.13 5.29 1.1 5.41 1.08 5.52 1.02 5.64 1 5.72 0.96 5.81 0.93 5.89 0.89 5.97 0.86 6.02 0.82 6.07 0.79 6.11 0.74 6.17 0.72 6.17 0.68 6.2 0.64 6.19 0.61 6.21 0.56 6.2 0.54 6.18 0.5 6.15 0.45 6.13 0.43 6.07 0.39 6.03 0.34 5.97 0.32 5.9 0.28 5.82 0.24 5.74 0.19 5.65 0.17 5.54 0.13 5.43 0.1 5.31 0.05 5.18 0.02 0 17.36 -5.3 -0.02 -5.43 -0.05 -5.55 -0.1 -5.64 -0.13 -5.75 -0.17 -5.84 -0.21 -5.92 -0.24 -6 -0.28 -6.07 -0.32 -6.11 -0.36 -6.19 -0.39 -6.21 -0.43 -6.25 -0.47 -6.28 -0.5 -6.3 -0.54 -6.29 -0.58 -6.31 -0.61 -6.3 -0.66 -6.29 -0.7 -6.25 -0.72 -6.23 -0.76 -6.19 -0.81 -6.14 -0.82 -6.09 -0.88 -6.03 -0.91 -5.95 -0.95 -5.88 -1 -5.76 -1.02 -5.7 -1.06 -5.59 -1.1 -5.47 -1.14 -5.36 -1.17 -6.76 -8.47zm6.76 8.47l-6.76 -1.53 0 -6.94 6.76 8.47zm10.58 -126.84l0 118.37 -17.34 0 0 -118.37 13.28 -7.35 4.06 7.35zm-17.34 0l0 -15.69 13.28 8.34 -13.28 7.35z"/>
    </g>
   </g>
  </g>
 </g>
</svg>
